P2
64 64
255
80
77
69
115
127
136
103
148
122
118
120
136
126
141
144
157
130
116
107
114
125
124
129
136
122
117
107
107
96
117
108
126
92
134
129
150
114
127
114
119
112
112
101
116
104
117
152
126
143
134
134
131
144
145
158
155
148
148
142
145
129
155
112
111
64
127
130
140
122
125
157
145
134
160
118
134
130
95
157
119
134
119
139
109
124
76
125
107
87
72
98
99
87
80
85
79
88
88
99
93
124
101
101
101
103
107
116
112
129
143
157
151
133
119
134
124
141
117
153
138
146
169
159
161
126
159
124
105
69
79
115
145
139
136
160
150
129
142
133
144
117
116
128
132
127
123
106
114
87
91
79
78
110
120
92
96
71
103
87
98
92
115
140
165
170
155
114
111
131
146
157
160
147
142
129
139
133
109
113
107
111
134
141
163
150
130
141
154
139
124
118
128
77
114
110
125
129
160
127
121
146
130
146
100
113
92
98
106
107
123
121
118
85
103
111
71
93
104
129
137
159
147
94
143
144
160
152
148
91
93
64
116
101
97
84
76
85
97
85
87
81
88
82
91
112
107
110
114
143
175
166
157
177
161
116
94
85
97
133
146
120
157
161
134
168
115
106
72
103
96
72
83
71
73
73
58
68
70
73
62
65
58
75
117
114
103
121
71
108
116
97
84
74
75
86
88
70
67
76
78
72
70
66
73
65
73
86
80
86
96
130
141
160
148
152
159
122
132
115
127
115
92
125
110
142
163
134
164
125
127
95
90
86
67
67
62
68
56
65
52
58
51
54
59
58
57
63
70
73
78
78
65
71
60
76
51
55
78
64
71
84
112
102
77
64
56
79
70
63
73
70
74
117
128
150
115
166
161
158
175
132
147
135
114
103
119
112
141
165
114
138
146
148
129
128
87
62
71
70
73
67
61
38
80
100
96
81
78
67
82
58
45
52
59
77
97
102
86
55
88
120
112
43
142
145
106
105
141
131
51
116
86
86
78
99
99
116
146
139
140
140
151
165
151
160
120
143
113
112
149
127
120
149
169
172
167
150
156
104
83
86
80
58
87
81
78
47
136
129
57
83
116
119
42
125
74
36
59
64
64
68
64
85
97
126
52
31
133
146
120
125
128
124
53
154
142
93
105
109
129
108
142
152
156
148
137
122
135
172
121
117
109
105
121
113
137
116
152
158
154
160
141
147
130
124
105
98
109
148
116
35
96
128
138
138
122
71
35
76
103
54
42
64
75
71
61
81
123
82
79
40
66
124
153
135
121
58
96
157
144
109
109
124
130
122
159
133
141
154
163
169
154
114
123
129
127
119
109
120
144
135
150
159
144
152
142
132
132
127
128
115
117
150
115
69
37
62
88
90
50
31
61
92
104
77
45
53
87
69
91
106
113
81
99
48
44
29
28
60
67
117
140
150
101
89
129
122
125
149
150
163
156
149
169
175
138
157
129
133
97
101
123
128
113
157
127
172
146
145
158
158
126
141
130
115
122
116
142
105
100
62
65
59
68
76
136
146
107
69
81
66
83
86
107
100
61
112
145
122
121
93
103
107
128
143
151
93
92
96
124
113
113
153
159
148
174
169
147
165
156
142
138
132
124
95
118
149
137
138
162
155
164
144
163
163
129
133
134
122
121
113
115
114
108
114
102
113
111
120
131
106
69
51
98
59
105
93
115
130
112
86
109
120
126
140
139
163
151
116
86
122
104
121
111
124
135
137
162
154
157
166
175
156
164
143
141
145
108
78
115
134
114
150
152
145
155
143
121
151
144
145
147
108
123
131
117
76
78
121
128
122
117
98
87
93
93
75
117
79
129
108
110
118
123
70
98
135
147
133
123
86
45
85
114
117
114
115
122
119
124
155
140
136
164
172
171
142
178
162
154
140
121
96
136
128
135
145
120
153
133
155
171
147
156
130
113
121
117
101
106
92
67
59
74
92
102
126
145
92
56
127
120
53
132
116
130
89
75
89
184
187
188
187
175
156
121
95
98
123
98
112
117
119
138
154
162
188
160
172
176
176
161
153
128
139
113
110
116
118
133
171
148
153
133
158
149
132
150
147
119
109
114
100
93
73
57
85
167
177
180
180
175
174
58
130
117
58
127
108
116
120
61
112
199
200
180
164
159
154
135
96
86
101
95
105
119
135
146
148
152
148
164
165
164
173
149
142
133
138
127
98
126
104
123
140
123
156
145
118
178
151
107
151
126
113
86
87
105
72
125
154
124
147
184
186
190
169
71
125
118
76
134
113
110
141
85
156
201
177
187
186
182
172
144
114
97
80
109
99
109
115
118
139
161
135
168
156
169
175
158
153
154
123
129
107
96
133
132
123
136
132
141
149
138
124
142
129
97
109
74
77
75
93
130
173
176
158
174
195
191
157
86
137
114
88
130
115
109
138
101
176
189
190
191
190
171
144
163
169
158
109
116
101
105
116
130
135
143
158
163
159
155
175
155
144
152
125
142
100
94
102
112
139
142
167
106
134
142
119
142
116
82
113
116
109
104
169
147
168
181
182
174
194
197
165
97
145
105
93
125
119
120
134
101
175
192
194
197
177
164
171
179
173
134
101
126
128
121
126
120
158
160
151
141
161
164
158
183
139
140
147
107
104
111
120
117
113
130
105
127
160
148
127
114
120
138
133
96
76
116
180
177
153
181
185
186
186
203
166
101
138
102
98
129
113
110
125
121
172
192
195
191
174
182
179
170
133
168
119
117
126
133
144
162
141
156
169
165
180
173
151
171
131
151
136
107
100
119
109
129
130
137
152
129
150
145
131
127
165
128
121
126
101
115
175
181
168
176
184
188
183
202
155
116
125
114
109
129
124
112
127
128
171
190
203
184
186
185
182
151
175
181
152
126
142
141
143
138
149
162
142
169
170
154
149
141
141
143
132
117
92
87
104
97
131
104
127
111
111
143
143
135
133
123
140
108
109
141
171
179
186
165
185
184
185
196
154
125
123
105
119
130
117
113
129
127
178
198
197
186
192
186
173
175
182
181
147
127
138
139
165
155
160
150
168
163
147
158
151
152
122
143
136
121
100
93
98
110
96
120
111
114
135
118
163
136
136
120
106
79
110
152
171
182
187
171
185
184
183
188
149
126
124
107
119
126
112
112
120
122
182
206
190
193
186
186
170
187
181
177
153
126
126
130
156
154
157
174
165
154
163
156
159
162
155
133
119
114
98
107
118
91
127
151
139
122
130
158
141
139
133
102
98
80
124
181
153
179
184
180
181
186
185
186
153
121
121
102
120
136
119
110
115
111
186
202
188
187
193
178
185
185
181
167
173
146
104
141
122
167
152
171
166
135
162
130
149
123
139
113
96
109
105
116
79
95
124
117
112
144
158
128
130
126
104
127
128
60
145
187
159
178
183
185
182
193
185
187
151
122
108
103
119
129
119
111
115
115
195
190
193
191
190
180
189
181
182
165
178
147
128
138
146
129
134
164
168
163
164
152
144
128
135
138
110
92
98
99
123
84
91
119
110
123
134
150
159
126
129
141
77
72
155
184
154
179
180
189
182
192
187
186
150
128
109
107
122
142
130
111
112
120
198
184
192
195
182
185
191
186
181
160
180
155
91
114
150
133
144
159
159
138
160
138
150
138
131
127
111
112
94
78
109
76
80
112
120
139
102
145
137
136
135
115
67
89
156
179
172
162
183
189
187
197
192
187
140
124
107
107
127
154
139
120
116
116
194
186
185
197
180
191
190
187
170
178
182
145
100
116
127
149
150
150
144
156
134
124
141
109
131
125
120
113
103
107
102
96
116
106
97
116
127
123
143
120
114
92
83
111
150
184
187
152
183
190
188
194
195
183
145
121
106
103
127
147
133
120
116
120
184
186
199
191
183
190
186
182
154
188
180
135
92
102
107
164
135
148
164
146
139
143
138
116
122
101
130
107
138
121
108
97
60
104
94
90
124
109
94
139
89
91
92
107
146
178
190
144
182
196
194
189
203
181
147
125
105
105
134
165
126
111
109
111
184
183
199
186
189
191
183
164
174
186
177
125
99
111
114
124
144
147
143
141
141
141
118
128
107
119
106
122
91
122
117
54
104
56
83
100
71
96
96
81
92
85
63
88
157
154
185
170
161
196
195
182
204
189
134
127
104
107
133
167
128
115
111
116
185
185
201
183
194
195
187
158
190
183
174
94
82
114
138
127
128
134
144
112
127
128
107
117
120
114
131
117
116
106
88
91
82
87
76
113
88
102
110
84
63
72
56
77
178
133
179
186
164
191
193
178
201
188
120
111
105
106
133
161
128
113
108
119
186
193
192
188
203
197
170
171
190
186
168
85
90
86
118
134
122
129
140
123
117
108
111
93
92
123
112
112
107
129
120
98
88
99
85
74
80
68
78
77
75
78
41
47
184
138
169
188
178
179
199
181
194
190
121
104
107
105
140
168
124
110
110
120
183
197
176
193
198
192
156
184
186
188
150
89
104
126
103
121
132
146
125
141
125
97
114
106
104
102
95
82
138
135
141
131
122
95
93
82
75
65
97
49
63
67
55
17
170
174
156
181
187
170
189
189
186
193
122
102
102
103
139
158
139
108
108
128
182
195
180
193
197
175
171
192
180
178
145
82
105
97
109
113
111
107
98
102
93
123
117
96
112
93
102
98
156
140
155
139
132
119
113
108
93
92
67
61
88
77
60
19
127
182
136
181
191
171
187
182
174
198
138
101
104
105
135
179
169
111
107
144
177
196
180
193
201
160
191
191
178
161
142
86
83
124
118
114
106
108
97
111
111
98
113
102
92
95
93
82
158
167
145
142
146
146
138
135
85
49
46
70
58
65
50
29
105
177
148
176
194
171
186
190
170
196
154
103
105
109
140
158
150
119
104
161
184
188
190
194
179
172
201
182
186
161
96
67
90
84
122
113
124
107
114
116
86
111
122
101
100
90
88
86
144
156
157
167
170
159
151
107
51
65
58
62
47
65
52
30
78
163
169
166
195
182
179
192
184
188
175
113
105
104
129
142
128
105
104
184
193
172
195
198
162
197
200
183
168
168
82
71
83
109
86
96
106
108
112
97
103
103
95
112
103
97
82
84
150
172
156
161
144
122
90
77
85
63
55
65
54
52
67
35
76
129
181
155
195
190
163
193
192
179
187
112
104
98
110
138
119
102
117
190
196
170
194
191
166
199
187
185
157
150
64
66
89
87
113
107
100
100
96
101
103
92
106
97
96
98
84
80
166
169
169
159
136
143
117
109
61
55
51
50
34
50
56
26
64
130
178
155
179
194
159
174
177
171
191
123
100
99
121
123
109
102
129
179
182
172
190
178
163
199
180
162
177
119
59
55
85
89
103
124
107
91
108
110
92
99
108
89
99
93
94
88
163
165
158
152
153
133
125
106
71
61
53
36
61
76
66
53
54
102
157
174
158
183
155
192
192
171
183
128
103
100
123
131
112
100
153
180
154
183
193
143
183
186
174
149
175
85
72
80
79
82
98
101
103
94
82
104
109
102
102
104
96
91
100
92
160
156
158
158
144
134
117
108
111
81
49
45
34
55
67
76
44
97
131
177
149
184
134
177
181
174
177
108
96
103
123
136
113
109
138
203
139
186
192
115
191
175
149
158
149
97
87
85
84
89
107
113
106
92
90
99
98
110
114
109
85
87
85
93
169
167
162
154
112
125
139
134
72
32
71
67
83
99
80
68
57
62
126
144
137
142
166
142
174
177
140
113
100
107
125
132
116
114
139
177
132
178
167
119
173
170
143
146
137
103
88
68
74
82
87
85
104
112
119
100
90
101
102
106
102
91
80
91
175
176
155
128
144
135
133
107
63
65
69
46
35
60
58
50
81
61
120
121
166
104
151
120
188
176
139
105
107
106
131
122
114
109
121
175
139
197
130
123
139
141
170
98
121
130
105
92
88
73
103
87
82
100
90
102
109
101
106
101
112
88
100
100
173
168
164
160
168
147
153
75
51
60
64
61
73
103
115
73
77
75
118
141
127
131
184
115
168
174
112
107
105
109
123
117
116
117
114
131
184
182
108
167
180
140
106
149
99
110
106
83
104
110
92
98
97
89
88
80
93
107
94
100
103
106
103
100
184
182
165
180
176
161
149
116
77
70
91
87
106
114
107
74
77
99
85
131
85
101
134
146
169
120
114
105
107
117
126
120
117
118
111
142
189
167
119
137
120
136
106
122
123
114
99
97
77
80
103
107
109
91
84
85
108
91
101
87
102
103
104
106
178
183
187
186
182
171
121
115
108
99
116
154
165
168
141
97
81
108
115
95
105
123
127
121
105
110
105
109
114
116
123
120
119
116
110
110
120
149
161
162
126
130
119
102
113
127
115
122
90
91
116
127
124
120
101
87
90
97
90
99
98
111
108
114
185
188
183
192
196
166
131
114
103
70
142
170
171
161
153
85
64
95
92
121
95
118
131
124
119
111
109
115
116
122
122
119
116
115
110
120
121
117
112
123
140
127
126
119
105
92
119
103
129
130
113
115
112
135
115
98
99
86
94
89
96
121
114
112
181
176
187
195
182
156
134
125
82
102
145
167
159
170
164
113
83
100
114
92
107
109
110
121
138
144
137
118
115
128
120
121
119
113
147
156
147
136
131
119
120
130
118
128
122
125
116
111
94
129
135
122
122
112
123
129
121
83
92
93
107
117
117
119
172
185
187
189
187
161
132
105
109
110
136
157
159
175
172
110
71
96
94
94
110
106
109
83
67
114
143
144
139
141
130
144
153
153
142
93
88
119
123
131
108
126
121
135
115
123
117
128
125
110
123
135
125
118
104
104
114
93
110
115
115
116
133
124
183
177
188
180
183
181
133
112
109
102
156
157
175
183
164
155
122
93
91
98
106
109
120
130
115
66
112
128
130
157
148
142
138
116
75
110
130
120
119
121
110
108
123
136
100
96
128
103
126
106
142
134
151
139
124
111
108
114
105
120
110
124
142
133
176
187
187
183
177
172
146
101
104
123
137
160
169
163
172
142
110
70
102
99
104
108
117
116
137
117
79
123
114
129
132
132
128
93
128
125
127
124
112
113
109
108
118
121
113
119
83
115
106
150
126
147
140
146
150
136
110
98
106
113
129
120
135
138
185
189
178
172
169
160
150
108
101
143
138
129
156
150
163
147
141
128
83
95
101
110
120
131
125
121
117
94
130
128
123
128
107
123
120
113
109
108
114
110
111
114
122
89
119
119
100
118
88
113
146
156
150
146
137
134
112
119
116
127
127
125
135
144
185
172
178
175
168
166
159
130
116
128
129
142
148
174
181
171
151
115
89
117
108
113
113
110
111
111
115
109
128
138
138
109
125
121
118
119
112
115
111
107
120
110
107
100
108
94
157
91
159
119
152
156
166
168
166
152
141
119
109
121
134
143
146
143
169
180
175
185
166
163
159
122
135
139
138
145
179
179
142
168
154
170
135
110
105
107
107
108
107
109
110
105
109
127
114
114
115
122
116
117
116
107
106
108
117
125
104
95
129
102
129
146
118
149
150
164
162
169
169
143
117
120
116
129
130
139
149
144
178
180
180
179
175
159
153
122
150
134
140
148
151
120
157
150
144
187
178
136
111
130
121
99
101
107
103
104
105
133
104
111
107
112
113
112
111
109
109
126
110
116
136
98
117
169
141
177
120
89
169
167
170
161
165
163
127
117
105
126
126
138
140
153
182
178
183
176
165
162
156
155
143
138
154
119
147
161
165
157
157
165
192
172
164
141
115
120
110
104
104
101
107
119
106
106
104
106
105
105
122
107
110
100
128
145
126
166
144
156
121
136
171
159
173
170
160
172
156
156
142
120
109
117
132
140
135
152
178
180
174
175
165
163
167
157
152
125
140
104
143
150
181
138
177
128
150
192
187
166
148
121
109
109
113
111
110
123
120
111
108
113
115
108
121
120
117
143
112
165
160
173
170
110
148
107
148
170
159
165
163
168
164
142
144
137
118
116
138
131
139
145
179
175
175
168
159
163
167
136
154
130
131
132
141
160
164
171
153
172
139
170
165
186
179
165
128
152
126
150
130
132
106
111
127
117
111
120
128
137
140
156
176
175
162
163
146
125
89
163
142
150
142
159
135
138
152
122
121
119
122
125
130
140
134
132
167
174
168
165
146
167
163
137
148
140
141
132
137
155
143
157
156
154
152
184
161
168
188
178
163
162
168
153
161
170
162
154
169
155
128
151
146
177
169
183
169
162
167
127
168
118
121
131
146
138
172
160
165
152
139
140
120
119
120
129
128
137
132
139
164
158
164
157
168
163
152
151
155
145
145
137
121
124
141
145
170
162
181
170
128
153
141
172
163
154
156
138
164
155
172
176
175
151
163
159
167
151
154
181
160
143
151
93
140
116
147
140
167
146
164
149
138
137
128
123
115
115
118
127
125
130
133
123
155
161
163
152
162
155
148
147
160
141
139
135
111
157
113
127
166
161
178
181
171
179
158
158
167
136
130
112
128
130
132
165
136
128
151
145
143
121
152
147
123
134
115
149
94
150
140
142
164
156
161
158
147
143
128
115
107
122
109
123
117
128
132
116
165
158
157
152
157
157
156
162
148
140
150
122
127
110
130
115
161
169
180
183
186
184
169
155
157
126
133
112
113
128
116
136
121
130
141
141
116
126
136
143
151
109
109
163
115
144
150
134
147
159
140
126
118
118
121
113
102
121
107
126
126
119
123
122
145
152
148
147
157
161
164
158
150
145
152
110
137
102
108
118
135
152
185
178
188
183
190
172
149
151
129
119
112
108
115
131
116
132
125
153
114
134
118
150
144
124
144
156
163
155
162
143
137
118
140
130
113
115
107
121
98
123
112
111
120
122
109
121
156
135
149
151
163
162
146
158
151
143
135
130
115
111
120
70
131
158
155
185
177
190
178
187
179
170
162
145
147
149
151
122
134
151
149
144
156
159
140
139
164
144
181
172
183
154
145
152
155
106
122
122
122
114
102
107
83
111
130
112
92
105
94
81
144
139
144
143
147
147
154
155
137
133
135
129
112
114
115
94
101
126
144
174
183
182
191
189
185
182
183
173
173
176
161
164
167
171
162
172
179
174
170
171
183
184
185
180
182
157
156
130
128
117
101
103
103
101
91
101
94
107
126
94
100
102
90
84
118
122
127
126
130
129
144
131
127
117
121
110
103
104
89
94
106
81
131
149
160
161
165
162
166
165
164
163
165
157
145
157
157
161
159
162
161
165
163
160
161
159
160
157
156
133
124
103
108
89
78
75
61
87
80
81
83
84
100
90
78
72
72
80
