P2
64 48
255
133
138
142
148
150
149
147
147
149
156
156
151
150
149
150
146
148
147
148
148
152
154
155
160
163
161
164
164
164
164
162
171
172
174
171
168
165
169
171
172
165
164
159
160
161
158
161
163
155
153
153
152
152
145
143
142
139
133
131
129
121
116
113
111
134
139
144
149
151
151
149
149
151
156
157
150
149
146
149
147
147
148
148
149
151
139
129
140
160
163
164
166
165
166
164
171
173
176
173
170
170
172
174
173
165
165
162
160
163
159
162
165
157
157
155
152
152
147
144
143
140
135
134
132
125
118
113
112
137
141
145
151
153
151
152
152
152
156
157
154
154
150
151
149
148
147
148
148
101
72
61
66
95
152
167
168
169
167
164
173
176
176
174
170
170
174
175
175
167
166
163
161
165
160
162
166
159
158
156
153
153
149
147
145
141
137
136
134
127
121
117
115
141
144
146
152
153
153
154
153
155
158
160
156
158
153
151
151
149
147
153
120
61
52
52
53
52
87
163
169
169
166
167
176
177
179
176
172
171
175
177
178
170
169
165
162
167
162
163
167
161
161
159
153
155
150
151
149
144
141
138
139
129
123
120
117
147
150
151
155
156
155
154
154
157
161
160
159
158
156
153
153
152
151
158
73
53
53
52
53
49
55
133
170
171
169
167
177
177
181
178
175
174
178
179
178
171
170
166
166
169
165
166
170
164
162
161
157
158
153
152
152
150
144
142
142
132
127
123
119
151
154
154
157
158
158
155
155
160
162
163
160
159
158
155
155
157
155
159
85
54
54
54
54
52
48
102
162
171
170
169
177
178
182
179
179
177
179
179
179
172
171
167
166
170
167
169
170
165
163
162
159
160
155
156
156
151
148
145
145
136
128
125
122
156
157
157
158
159
159
157
157
162
163
164
161
160
158
156
156
157
156
159
114
57
53
53
55
51
50
84
145
169
170
169
177
180
182
179
177
178
180
182
181
176
172
169
168
172
169
169
172
165
164
163
161
160
156
157
157
152
150
146
145
136
129
127
124
161
161
162
162
162
162
158
159
162
163
164
161
158
159
157
157
158
157
158
137
54
54
53
56
50
51
86
131
167
169
170
176
181
184
180
178
178
180
184
183
178
172
171
170
173
170
170
174
165
165
163
161
161
157
158
159
155
151
148
147
139
133
130
125
164
163
163
164
162
164
164
162
161
164
164
162
162
160
158
158
160
159
160
159
106
51
49
48
44
64
90
136
163
170
171
176
180
181
179
180
177
179
181
181
176
173
169
169
175
172
172
175
166
168
166
162
164
159
159
158
155
153
149
148
141
134
132
127
171
167
167
166
165
163
185
196
171
167
166
165
163
160
159
160
161
162
161
158
157
124
84
65
69
86
108
153
166
170
170
177
180
183
180
180
178
178
179
179
174
171
170
171
174
173
173
175
169
170
167
163
164
160
162
161
156
154
151
150
144
137
135
129
173
170
169
168
167
160
142
180
202
124
161
168
164
161
160
160
163
162
163
160
157
158
140
128
122
128
147
165
168
169
170
178
182
185
182
179
177
178
181
182
175
171
169
171
177
175
176
177
171
170
167
167
166
162
164
163
159
157
154
154
147
138
137
132
174
172
170
170
167
166
161
148
101
45
67
136
167
162
161
161
161
162
163
164
161
162
157
155
159
159
159
170
170
171
169
178
183
189
184
177
177
179
183
181
175
172
170
167
177
176
177
179
175
172
170
168
170
164
164
165
161
159
155
156
148
142
140
135
175
173
172
170
167
166
164
162
159
124
61
44
89
146
160
160
160
161
163
164
164
165
162
165
165
164
165
173
173
172
171
178
182
188
180
177
178
182
195
201
193
181
172
167
174
176
178
181
174
173
170
168
170
165
166
167
163
160
158
157
149
143
140
136
174
170
169
167
167
165
164
163
165
167
155
100
54
51
106
147
164
162
164
163
165
168
164
165
169
169
169
174
173
171
172
177
183
187
178
180
206
231
247
250
249
238
209
176
172
175
177
179
176
174
171
170
172
166
168
167
162
161
159
157
152
145
140
136
177
173
170
168
167
166
164
164
164
166
166
163
139
91
46
63
113
160
166
165
165
169
167
169
171
171
168
173
172
171
170
176
180
184
179
222
248
250
249
249
249
249
247
223
180
174
177
179
176
175
173
172
174
167
167
168
163
162
160
158
152
146
141
139
176
174
172
169
167
168
164
163
165
166
165
164
162
154
132
72
41
70
139
165
166
169
168
171
170
173
169
172
170
169
169
177
179
182
208
246
248
249
248
249
249
248
246
246
214
176
179
180
178
178
175
172
175
168
167
168
163
164
161
158
154
147
144
139
176
174
173
171
172
167
166
165
165
167
166
164
164
158
156
151
119
57
44
97
153
169
169
170
171
172
169
172
169
169
170
177
179
189
233
249
249
248
249
249
248
249
248
247
236
184
176
180
177
179
175
174
177
169
169
168
163
163
160
160
154
147
145
139
176
172
171
174
172
167
165
167
167
166
165
164
164
158
157
157
159
149
100
57
56
115
157
172
171
173
169
173
170
169
169
177
180
199
241
248
248
249
249
249
249
248
248
248
239
194
172
177
176
179
177
175
177
171
170
170
165
165
162
162
157
149
146
142
168
165
164
164
167
165
164
164
163
165
166
164
161
158
157
159
160
161
159
139
96
54
68
125
170
174
169
171
170
168
169
175
180
202
243
248
249
249
249
248
249
248
246
247
239
195
169
177
173
178
179
177
178
170
170
170
165
167
164
163
157
151
146
143
165
162
162
160
161
162
159
161
163
164
163
161
159
159
157
156
160
160
160
159
157
140
83
47
74
145
169
170
170
168
169
174
179
195
237
246
246
247
248
249
247
247
248
244
235
178
160
178
172
176
176
174
176
168
170
171
164
165
163
162
157
150
147
145
161
159
160
157
158
157
154
157
160
162
160
159
156
157
155
154
157
159
159
159
161
165
161
123
63
51
101
155
165
167
168
174
177
181
212
237
238
247
247
247
247
246
246
241
221
154
151
176
172
173
175
173
176
169
170
170
164
164
162
162
155
150
147
144
155
155
156
156
157
153
152
152
158
160
157
157
155
153
155
151
155
160
158
157
158
165
164
162
156
109
60
63
115
153
168
173
177
176
197
234
240
244
245
246
246
245
243
232
188
136
148
172
171
172
173
173
174
168
167
170
164
164
161
161
156
151
147
143
148
150
152
154
153
147
149
151
154
158
154
154
152
151
154
151
153
158
158
157
158
165
163
161
166
166
143
102
57
68
121
166
174
175
172
202
228
234
238
240
240
239
234
195
143
135
146
169
171
172
174
174
173
168
167
170
164
163
162
161
156
151
146
143
142
146
150
149
148
144
145
146
151
156
153
151
151
147
150
150
152
156
157
156
157
164
162
165
168
169
164
160
141
90
51
92
170
177
171
163
176
207
220
221
223
216
178
136
134
138
152
168
170
173
174
172
173
169
168
169
165
163
161
160
156
150
148
143
135
136
142
143
143
141
141
145
149
152
150
152
150
147
150
148
151
156
156
155
157
163
162
164
166
167
165
163
162
161
128
123
156
168
172
169
145
134
154
164
157
137
125
126
132
143
161
172
167
172
175
174
173
169
167
170
165
164
159
160
156
148
148
145
125
128
133
136
135
134
136
138
145
148
147
145
146
147
149
146
149
153
153
155
155
161
161
161
163
166
163
162
162
161
164
164
154
155
167
171
168
151
134
125
120
120
125
129
140
153
166
172
168
172
175
173
173
168
164
167
164
162
160
160
155
150
147
144
116
120
124
127
126
126
129
134
140
144
141
140
142
142
146
142
146
150
150
152
152
159
158
159
162
165
161
161
162
159
162
170
172
174
171
169
171
166
163
155
146
141
141
147
158
162
167
172
167
171
172
171
172
167
164
166
163
162
158
158
154
148
145
144
109
112
117
119
119
120
124
130
135
139
136
138
138
136
141
139
144
149
148
150
151
157
156
156
161
163
159
159
161
159
161
172
171
174
173
168
170
169
166
166
162
160
160
160
165
164
167
171
165
169
171
169
170
166
163
166
161
160
155
156
153
148
144
145
103
105
111
113
114
116
120
124
131
134
134
135
135
130
136
137
143
146
145
149
154
160
157
157
159
162
157
160
158
157
160
170
172
174
172
169
168
171
170
165
163
162
161
162
164
162
165
171
165
167
170
169
167
165
162
163
160
157
157
155
153
146
145
142
98
100
106
110
110
111
115
119
127
130
129
132
130
128
133
133
138
142
143
171
188
197
171
156
158
163
158
158
159
154
157
166
170
173
170
167
167
170
172
168
164
162
161
161
162
161
163
168
166
167
167
166
166
164
159
162
159
156
157
154
151
145
142
141
93
96
101
104
104
107
111
117
125
128
127
127
127
128
134
132
134
139
145
195
189
202
184
157
157
160
155
160
158
154
157
165
166
160
161
164
165
170
173
171
167
164
162
161
162
160
164
169
166
166
167
165
166
164
159
161
158
156
155
153
151
146
144
142
87
90
94
101
100
103
107
113
119
122
121
124
125
124
130
130
131
136
138
186
196
195
175
153
153
159
155
158
156
153
155
159
155
170
164
159
167
168
173
172
165
165
162
161
163
160
164
169
168
166
167
166
165
163
158
158
158
156
155
152
150
144
143
144
82
85
91
93
94
98
101
106
114
115
116
120
122
120
125
125
130
135
136
145
174
167
144
147
152
157
154
156
155
151
152
136
88
150
170
142
161
168
171
171
167
163
163
163
164
163
163
168
167
164
165
162
162
161
155
158
158
152
154
149
149
140
141
141
76
81
85
89
91
93
96
101
109
111
112
114
115
115
120
121
126
130
134
138
133
142
144
145
151
155
153
153
153
149
150
127
50
108
121
106
159
166
170
169
165
162
161
161
162
163
162
166
164
162
162
161
159
159
155
156
156
150
150
146
147
141
139
139
73
76
81
84
85
88
94
98
105
106
109
112
110
111
116
116
123
127
130
135
138
143
141
143
148
153
151
153
152
147
147
128
124
124
123
103
156
165
169
169
163
161
160
159
161
160
161
163
163
159
159
158
156
157
152
155
154
148
148
147
146
140
138
136
68
73
77
79
80
84
89
96
101
104
105
109
106
109
115
114
118
124
129
132
135
141
141
142
147
150
150
151
150
148
149
136
133
151
146
117
157
165
168
166
162
160
159
157
159
159
160
162
160
156
157
158
155
155
151
153
149
147
146
146
145
140
138
135
65
69
74
75
76
79
84
91
98
98
100
104
100
106
112
113
115
123
126
129
130
141
141
140
145
151
148
152
151
147
151
131
89
105
106
110
159
165
168
166
161
161
160
157
160
158
158
162
160
156
155
156
155
154
150
152
150
146
146
144
144
138
136
134
64
67
70
74
74
78
83
88
94
95
98
102
98
104
108
108
114
118
125
127
131
143
139
140
145
149
148
151
150
147
150
132
93
93
107
113
158
163
168
166
163
162
159
157
159
157
157
160
161
154
155
154
153
154
148
150
148
145
145
144
142
135
135
132
59
63
67
70
72
75
80
85
89
91
95
99
96
101
106
105
111
116
122
124
129
140
136
138
142
145
144
149
147
145
150
130
92
95
108
114
158
163
168
165
162
160
158
156
156
155
156
157
158
152
152
153
150
152
148
147
149
143
146
142
140
134
133
132
58
61
65
67
68
72
76
82
87
88
90
96
91
97
102
103
107
113
119
120
123
137
133
135
137
141
140
146
145
143
148
125
91
96
104
115
155
159
163
163
161
157
156
154
155
156
155
155
156
150
149
150
148
148
145
144
146
141
143
140
137
133
130
131
56
59
60
62
63
68
71
77
82
83
87
90
89
93
97
101
104
108
115
115
120
134
130
133
138
139
138
141
142
140
146
123
87
94
100
115
153
158
162
161
158
154
153
151
153
153
152
150
155
147
147
147
146
145
144
141
144
138
140
137
136
130
127
125
52
57
59
61
62
65
69
75
78
81
83
88
85
90
94
99
101
106
112
111
117
131
127
128
133
135
135
140
138
137
140
120
85
95
98
114
153
154
158
157
155
153
151
149
152
150
151
149
154
146
145
145
144
143
141
138
139
136
137
134
133
128
124
122
51
53
57
59
61
62
68
74
75
79
80
85
82
89
90
96
99
103
109
110
114
126
122
124
128
134
134
140
136
132
138
117
86
92
96
115
150
151
156
156
155
152
150
148
149
148
149
149
152
144
142
144
142
143
140
135
137
133
132
132
130
127
121
118
49
53
53
56
59
61
66
72
76
76
79
81
78
87
88
94
98
103
108
107
114
120
117
122
128
132
132
136
133
132
137
114
84
89
92
114
147
150
154
155
154
151
149
148
149
146
146
146
148
143
141
143
139
139
139
132
137
132
130
129
127
123
119
117
48
50
53
54
58
59
64
72
73
74
78
80
78
85
86
91
95
99
105
105
110
119
117
121
127
131
132
136
133
131
136
110
82
85
90
110
146
149
152
153
152
148
146
145
147
144
145
142
145
142
139
142
139
136
136
132
132
129
127
129
124
122
117
114
47
48
50
53
55
58
62
67
69
72
76
77
76
81
85
88
91
96
102
103
110
117
114
114
122
127
127
132
132
130
134
117
95
96
98
116
143
146
150
150
150
148
144
140
145
143
144
140
145
140
137
139
137
135
135
130
129
125
125
125
123
118
113
114
45
47
49
50
53
56
59
64
68
69
72
74
73
79
81
85
88
94
101
99
106
112
109
114
119
123
124
127
128
127
132
139
128
131
131
133
141
144
148
150
150
146
142
141
141
139
140
136
142
137
135
135
135
132
132
126
125
123
120
120
120
115
109
109
42
44
46
48
49
52
57
62
66
65
69
72
71
77
79
81
86
90
97
97
101
110
107
110
114
118
117
122
124
123
129
139
140
142
140
137
138
140
145
147
146
144
139
136
137
136
135
134
137
133
132
132
134
129
130
124
120
118
116
118
113
110
104
103
