P2
120 113
255
74
71
73
72
70
67
66
70
68
64
64
65
62
62
60
58
58
54
50
49
46
46
48
48
49
54
62
67
70
57
25
20
19
19
21
18
17
16
17
17
18
19
19
17
28
73
76
71
43
7
16
36
29
7
2
5
10
16
18
34
31
16
25
48
39
27
29
31
32
43
34
17
27
30
19
12
10
10
9
4
5
9
9
8
5
2
2
17
39
50
40
24
8
3
2
2
11
25
17
5
1
1
2
2
3
6
19
45
43
16
14
29
32
26
10
2
13
33
33
52
73
72
75
72
73
72
70
68
68
68
64
64
65
60
60
67
66
60
54
53
48
47
49
49
49
48
43
52
47
21
19
20
19
21
18
17
18
17
18
19
19
19
17
23
68
73
52
25
10
18
35
33
10
3
8
12
18
28
34
23
20
27
39
25
27
34
35
37
40
56
34
18
30
26
24
23
18
12
12
8
10
13
13
11
8
4
3
2
2
2
2
2
2
2
2
1
1
1
1
1
1
2
3
3
5
8
10
25
67
49
19
5
14
42
41
17
5
5
31
38
76
75
78
78
77
75
74
73
70
66
64
65
65
60
59
64
62
61
55
56
52
51
50
49
49
50
47
38
21
21
22
20
21
20
18
18
18
18
18
18
19
20
19
51
68
29
7
12
26
42
35
12
5
12
18
17
14
11
15
26
26
36
15
28
35
37
36
40
49
31
18
20
34
37
42
54
47
38
30
19
12
18
27
29
19
7
6
10
8
5
2
1
1
1
1
2
2
1
2
2
2
2
3
5
8
10
12
18
52
65
56
39
19
17
36
47
39
18
6
32
75
77
81
79
80
80
77
73
71
69
69
67
66
65
63
65
62
56
55
58
56
55
54
49
48
48
46
27
21
23
22
20
20
18
18
18
19
19
18
18
19
19
42
62
22
6
17
34
44
28
8
8
16
19
20
26
14
13
30
23
40
14
23
30
36
37
43
46
28
35
46
40
41
24
11
9
16
12
20
30
13
17
20
33
37
14
12
21
18
11
9
3
1
1
2
1
1
1
1
1
2
2
4
6
9
10
11
12
32
63
77
67
62
38
16
29
42
45
25
8
76
77
78
79
81
83
80
77
74
74
71
67
66
68
68
64
66
60
54
58
60
54
56
53
50
48
34
23
23
23
20
22
20
19
19
19
19
19
19
19
19
29
62
28
9
20
36
41
19
5
11
19
25
24
28
39
17
25
23
42
23
23
19
26
41
44
39
26
32
30
43
50
28
36
29
5
3
4
22
31
20
31
22
30
28
19
21
22
16
14
17
15
9
2
1
1
1
1
2
2
3
4
4
6
10
11
11
11
16
49
73
71
68
62
52
34
26
28
36
28
77
77
77
79
79
80
80
80
76
72
72
72
69
65
66
65
67
62
57
56
56
57
60
59
53
39
25
21
22
22
21
21
19
19
19
19
18
19
20
19
24
55
39
9
21
39
38
16
5
13
19
29
37
31
38
37
28
20
40
34
21
25
34
46
28
39
34
32
34
37
25
38
39
54
49
13
7
4
8
15
25
26
19
21
32
29
20
17
22
23
20
29
29
8
2
2
2
2
2
3
5
7
6
8
9
10
12
11
13
31
62
62
62
54
48
46
43
36
27
32
79
78
76
72
75
77
79
81
76
72
74
76
72
68
68
68
63
63
60
57
56
56
61
62
45
27
20
22
22
24
20
20
19
19
18
19
19
19
19
20
43
55
16
15
37
41
20
6
15
19
20
32
32
32
46
43
26
31
42
24
26
41
55
35
13
32
37
38
49
49
40
40
38
38
45
24
13
10
12
9
13
20
26
29
23
15
24
42
49
40
33
29
31
15
6
4
3
2
1
2
5
9
10
12
7
7
8
8
11
22
35
33
34
24
20
23
24
31
37
23
82
80
80
77
77
74
78
81
78
74
73
73
71
70
75
71
67
63
62
60
60
57
58
56
33
21
20
22
22
21
19
19
20
20
18
20
19
19
17
35
63
33
14
33
46
29
6
14
19
19
29
34
21
30
44
29
25
46
33
26
40
59
46
27
36
55
64
51
36
43
41
43
52
57
33
30
29
25
32
14
3
14
35
30
22
34
39
36
23
14
20
28
25
15
8
11
6
3
3
2
5
9
14
12
6
3
2
3
14
32
30
20
22
26
28
34
37
28
26
33
83
81
81
80
77
73
75
79
78
76
72
74
72
70
78
75
71
67
64
62
61
58
56
48
27
18
20
23
22
18
20
20
19
20
18
20
20
19
24
53
58
19
31
53
43
10
12
18
25
37
45
28
29
43
28
24
45
40
27
35
51
37
36
34
35
41
46
37
29
30
29
60
74
49
31
33
22
25
51
18
3
8
22
31
42
33
15
7
4
6
16
35
25
15
12
18
14
6
7
6
6
7
8
6
4
2
3
11
57
77
52
29
29
32
26
25
35
34
28
44
85
83
84
83
82
77
78
82
81
78
74
73
74
71
74
75
73
71
67
61
61
60
56
52
31
18
19
22
19
19
18
19
20
19
19
20
21
19
38
65
40
30
45
46
18
10
24
36
48
54
31
28
44
31
20
35
45
39
52
48
28
32
34
39
31
28
30
34
42
21
38
81
65
28
27
13
7
39
45
8
1
10
39
58
41
9
6
21
29
23
17
27
30
18
12
16
17
13
9
7
6
6
5
3
5
5
7
20
78
72
46
30
35
37
33
33
28
26
38
63
86
88
86
84
85
89
83
83
82
81
79
74
72
71
73
75
72
71
70
64
62
60
59
61
46
26
22
20
19
19
18
19
20
19
20
20
19
33
62
63
25
41
41
18
13
29
39
46
58
31
25
37
33
36
66
86
90
107
112
67
32
30
38
33
40
33
26
28
49
31
60
71
40
25
9
6
32
58
21
4
7
31
57
46
19
21
26
23
45
58
41
22
16
16
22
32
38
41
25
11
8
6
7
6
13
9
14
16
52
64
47
36
49
52
49
47
34
22
60
67
91
88
87
86
84
83
83
82
82
82
78
79
78
74
72
73
74
69
71
68
64
63
61
63
59
49
38
25
19
18
18
19
21
20
20
21
19
42
70
46
33
42
23
10
28
32
41
47
35
20
48
77
86
100
108
105
116
137
131
94
40
37
38
38
39
33
25
34
43
42
47
47
35
11
5
23
55
27
7
17
32
37
31
25
29
21
12
7
22
37
32
39
30
5
9
19
27
24
21
26
26
19
12
9
25
16
16
15
25
47
41
32
51
48
45
43
33
18
56
52
87
87
86
85
84
83
84
83
82
81
78
73
79
78
74
76
79
70
69
69
67
67
63
69
68
58
56
44
32
20
19
19
20
20
19
19
18
42
66
34
41
32
12
15
33
61
89
71
45
93
108
112
118
121
124
122
124
143
133
111
52
30
32
41
37
27
26
42
32
52
54
34
13
6
24
49
25
8
19
39
30
23
27
19
13
12
16
25
31
34
30
37
16
3
5
11
13
16
17
13
9
5
4
4
9
12
17
15
22
30
15
16
37
34
20
15
12
4
18
29
92
88
88
90
90
88
87
87
84
81
92
88
79
75
76
79
79
76
71
68
67
68
64
66
68
61
57
44
33
32
31
30
24
19
19
21
23
40
51
34
33
16
10
28
48
88
108
114
115
123
112
120
130
123
136
134
128
136
129
111
99
45
45
32
29
23
34
40
18
20
17
8
12
35
48
22
7
17
31
32
31
39
47
55
57
59
56
51
35
20
10
13
20
15
15
21
31
44
39
31
13
2
1
2
1
4
15
16
20
16
16
9
18
26
23
26
17
27
40
27
98
100
90
93
87
87
83
86
87
83
86
82
79
76
75
78
77
75
72
67
69
73
69
65
67
64
58
41
24
20
22
29
32
36
40
35
30
41
37
31
21
11
15
23
30
92
105
124
128
138
151
159
149
131
130
136
148
130
122
113
115
52
29
28
15
27
43
38
32
18
7
21
52
54
21
8
22
27
36
36
46
77
77
75
68
48
22
10
6
5
10
15
14
19
44
41
37
40
37
19
5
1
1
2
1
4
6
8
11
17
22
19
28
26
21
23
36
41
34
38
90
95
95
95
90
89
92
93
88
83
84
91
91
96
75
79
79
75
71
71
73
70
71
68
71
67
60
44
23
20
21
21
20
21
28
42
50
50
34
21
14
13
22
25
90
124
116
127
133
151
163
151
143
133
130
132
129
129
123
113
100
59
27
24
11
35
46
40
44
32
11
42
57
36
9
20
30
34
33
15
30
64
72
58
37
22
34
44
38
26
17
8
6
7
13
15
13
11
7
3
3
6
12
20
24
15
9
4
4
8
9
9
13
18
24
27
26
27
27
44
94
102
93
92
96
102
112
105
88
84
100
99
90
112
86
86
95
82
75
72
76
71
70
70
70
72
63
59
37
24
21
21
19
20
21
21
23
29
32
21
16
18
45
112
130
128
136
143
157
152
142
137
130
131
134
145
139
125
121
114
90
66
41
12
12
21
34
51
46
14
14
52
66
68
19
48
36
50
15
21
49
54
33
24
37
61
67
64
56
56
52
44
33
31
35
41
43
41
38
34
44
52
54
61
59
54
50
32
15
7
7
16
38
43
40
43
49
45
43
43
94
96
93
93
98
97
91
90
92
92
83
83
84
107
102
88
94
81
76
79
76
71
73
74
67
67
62
62
61
39
28
29
25
22
22
23
23
22
22
22
24
60
136
116
118
151
155
162
168
158
148
146
134
124
125
122
124
122
121
107
94
76
53
19
40
44
28
17
5
2
26
51
58
41
53
42
41
48
21
36
39
22
36
59
65
70
69
59
61
65
67
66
67
65
63
58
52
55
51
57
67
62
61
63
59
61
62
58
54
32
12
19
51
53
54
60
58
60
56
39
92
92
98
104
93
95
94
90
89
92
87
85
88
87
87
85
80
77
88
111
88
71
73
75
72
63
64
62
67
61
57
50
33
27
24
23
23
23
23
35
85
136
136
139
155
170
173
176
168
160
150
137
127
126
123
122
120
120
113
98
90
84
70
45
53
15
4
5
8
8
14
30
39
29
24
11
12
33
42
31
38
58
63
63
64
63
58
61
63
62
58
48
44
49
41
19
14
33
42
56
65
61
64
68
61
66
68
60
57
60
43
18
19
40
48
44
43
50
43
29
94
93
92
95
91
95
95
94
94
109
105
88
108
92
105
110
98
81
89
97
80
77
75
76
71
61
65
64
64
64
53
55
47
35
30
27
24
25
39
93
113
130
148
161
174
174
173
169
162
142
132
137
115
117
115
114
114
108
98
97
86
79
73
59
38
11
6
9
17
24
28
25
24
34
48
38
34
22
28
46
58
57
57
57
57
50
47
43
39
27
14
5
5
10
6
3
3
9
27
51
56
53
64
62
58
63
63
61
64
64
55
45
18
27
36
24
21
16
16
37
94
96
96
95
96
92
96
96
91
99
101
88
118
88
85
88
98
103
81
79
81
81
74
77
70
63
67
68
68
58
53
51
53
53
45
38
34
51
112
137
129
146
160
176
170
166
169
161
133
114
118
122
120
112
111
109
110
107
102
95
89
77
73
62
50
33
10
18
28
42
45
30
26
20
21
26
28
36
43
41
38
37
34
32
29
22
18
10
11
10
11
13
10
6
11
14
11
3
9
35
57
55
68
60
58
65
60
58
65
64
65
60
38
16
26
35
22
15
19
28
95
103
97
101
98
94
96
96
92
104
106
101
124
95
86
97
108
111
93
88
77
74
72
81
73
67
63
66
67
53
52
51
48
53
53
56
83
114
127
142
156
171
169
175
154
140
142
131
116
115
117
118
118
113
106
105
106
112
109
106
93
81
72
64
60
50
33
37
39
36
21
12
25
23
17
16
8
11
16
16
16
14
11
14
17
21
22
33
41
28
24
26
27
20
21
21
18
11
7
17
45
59
64
55
54
67
61
60
74
60
61
62
57
30
24
37
40
34
30
23
100
106
93
98
93
99
97
94
94
97
96
107
106
110
92
104
94
91
99
92
81
74
74
80
74
66
61
61
67
55
54
50
47
50
49
70
124
149
149
157
159
166
158
166
140
142
148
124
110
115
117
111
120
115
106
98
102
116
116
113
102
81
76
68
57
57
50
36
23
19
12
9
14
16
19
16
16
17
21
29
34
26
22
19
15
18
26
39
34
27
26
10
16
18
18
25
30
31
18
8
33
56
57
48
54
63
63
68
72
61
58
61
60
52
29
28
31
16
15
33
106
96
97
96
96
99
99
97
98
98
98
106
102
107
103
104
106
107
104
101
97
95
92
89
84
79
73
68
69
70
72
70
65
60
71
110
125
140
160
168
171
169
160
158
141
140
133
110
109
110
110
96
103
104
104
98
95
134
108
106
106
83
80
69
51
39
29
21
21
14
11
17
16
16
18
17
19
18
23
30
24
21
30
28
20
15
16
18
13
23
27
7
3
20
32
35
35
29
22
9
15
47
46
44
60
57
64
70
68
59
57
61
60
58
52
27
32
39
36
32
108
101
102
103
105
106
107
109
110
111
114
116
118
120
122
122
123
123
124
121
117
115
113
111
108
103
96
88
80
79
90
99
98
96
113
135
133
147
165
175
179
179
167
163
143
130
114
104
108
118
102
101
106
101
97
97
103
132
107
105
107
86
81
74
49
21
23
25
19
8
18
14
13
16
15
12
13
13
14
15
16
25
26
18
12
9
14
17
12
26
29
13
5
23
32
28
17
13
17
12
4
23
37
53
58
54
62
65
66
62
59
62
62
59
60
46
25
42
36
18
109
111
113
115
119
120
121
123
124
127
128
128
129
134
135
135
134
134
133
129
125
122
120
117
115
112
108
107
101
94
96
105
107
113
138
148
155
161
168
174
177
174
167
161
151
131
109
101
105
113
102
107
104
112
109
98
107
107
107
105
108
94
84
81
51
21
20
20
20
14
15
12
21
21
11
10
8
9
12
13
17
16
13
10
6
6
7
16
11
11
17
13
5
19
21
14
11
17
22
21
13
11
20
46
50
55
59
64
65
62
58
62
63
59
61
59
38
22
23
7
121
124
128
130
133
135
136
138
140
140
139
139
139
140
141
140
139
139
137
133
127
124
122
119
118
116
114
112
109
108
107
107
120
130
156
167
169
171
172
174
170
165
168
172
149
111
100
98
100
99
104
111
110
110
108
103
106
107
103
102
99
109
89
85
69
24
13
22
27
19
9
16
17
10
6
10
8
9
7
8
7
5
4
4
3
5
6
6
9
11
12
5
6
14
11
8
17
26
26
23
18
21
14
16
37
50
59
60
60
63
60
61
64
58
58
59
56
26
7
5
131
135
141
143
144
145
146
146
146
145
146
145
144
143
141
142
141
140
138
134
128
125
123
121
119
118
116
115
114
112
103
120
144
158
172
178
178
173
171
158
150
169
166
169
141
114
101
98
97
95
104
108
110
106
102
107
111
108
102
99
97
98
95
82
93
41
20
15
18
12
9
11
6
3
4
3
5
5
7
6
8
6
3
3
2
2
3
1
11
20
9
5
3
7
13
12
16
17
17
16
20
19
13
9
13
25
51
53
57
63
60
62
64
58
56
60
61
40
7
3
143
145
147
149
148
148
147
146
146
146
145
145
144
143
143
142
141
141
139
137
131
127
125
124
122
121
119
119
119
118
133
133
150
166
180
182
175
163
148
133
129
129
144
138
139
112
120
122
112
124
114
119
111
112
110
110
111
107
105
103
93
105
100
87
82
55
26
5
8
9
7
5
3
3
6
3
2
2
6
11
14
10
6
6
5
4
4
5
4
13
11
12
9
7
19
15
10
12
18
22
26
28
30
28
24
17
23
37
52
58
61
63
62
59
60
60
59
50
16
2
145
147
147
148
148
148
148
147
147
147
146
146
145
146
145
144
142
142
140
140
136
130
128
126
124
124
123
124
115
114
137
151
155
173
181
174
161
144
136
134
122
118
135
130
134
133
122
117
143
132
135
113
115
115
109
106
108
104
105
103
93
98
97
98
81
62
27
5
6
7
6
4
5
11
7
6
8
7
5
14
14
8
5
6
6
10
8
10
9
7
6
8
13
12
29
33
35
38
40
44
43
41
38
39
38
35
35
33
36
40
42
49
56
59
60
56
55
53
26
6
149
149
150
149
149
149
149
149
149
148
148
148
148
148
146
146
145
143
142
141
137
133
131
130
129
126
127
119
136
130
147
164
171
180
177
161
141
119
120
141
122
115
118
126
126
123
116
121
133
95
120
113
106
111
104
93
114
98
99
99
98
97
96
97
92
69
23
3
5
6
6
6
8
9
6
9
13
13
11
14
14
7
4
5
14
22
15
14
13
17
17
12
29
38
43
45
45
46
47
48
46
43
44
44
38
40
38
36
34
34
33
33
33
35
42
49
50
53
31
8
149
151
151
151
152
153
152
151
151
150
151
150
147
148
148
147
146
145
144
143
139
133
131
127
128
129
126
113
123
148
152
165
175
177
167
146
122
118
117
113
113
116
131
120
132
131
125
119
153
155
101
110
103
106
104
97
95
102
98
105
110
98
98
92
94
78
27
3
7
9
10
12
8
6
11
7
7
7
8
14
10
10
9
9
17
14
17
18
7
19
29
42
48
49
51
50
51
51
51
52
49
46
45
44
43
40
40
37
36
35
35
35
36
34
32
31
33
40
36
9
152
154
152
153
153
152
153
152
151
151
150
148
148
149
148
148
145
144
143
143
139
135
131
130
131
131
114
122
146
160
166
171
175
164
145
127
125
122
122
118
113
109
114
114
118
125
122
119
103
97
106
109
105
103
103
101
98
102
105
100
102
100
103
94
96
87
37
5
10
12
11
6
7
9
7
12
18
15
10
12
11
13
8
7
6
2
7
15
20
39
47
51
54
55
54
54
55
55
55
54
52
52
54
52
47
46
45
42
42
39
36
34
34
35
35
34
33
32
29
14
154
153
153
153
155
155
154
153
152
150
150
149
148
147
145
145
143
143
142
141
137
134
131
130
131
126
135
139
157
170
176
177
163
146
126
129
136
117
132
126
111
107
111
111
112
117
120
124
116
109
105
108
110
100
96
101
98
101
111
103
102
99
103
100
99
101
51
8
9
8
6
9
9
6
5
18
18
10
10
11
8
10
7
3
2
2
8
29
45
52
54
55
55
55
56
58
58
54
55
55
53
51
51
51
51
48
44
43
41
42
41
39
38
37
33
33
35
34
33
28
154
154
155
155
155
153
151
150
150
150
150
149
149
148
146
144
144
144
143
141
138
135
132
130
130
125
140
156
169
174
174
171
147
134
122
117
126
120
114
118
118
108
107
118
118
118
126
135
123
109
106
105
114
107
96
110
107
101
105
101
103
98
99
96
92
91
61
17
5
8
11
6
5
5
7
15
8
10
8
13
15
8
5
4
5
10
27
47
56
59
60
58
58
57
59
59
58
58
58
59
57
59
57
59
54
51
52
47
44
43
45
44
42
41
38
36
36
35
34
31
154
153
152
152
151
151
151
149
148
147
148
147
147
145
146
144
144
144
142
141
138
134
130
131
121
136
146
166
175
174
172
160
124
129
119
117
115
117
119
119
113
113
110
114
106
114
151
120
130
119
108
104
108
106
100
99
104
112
104
103
112
99
97
98
93
91
73
30
5
5
5
5
5
5
11
10
14
11
7
12
15
10
4
3
8
23
41
54
58
61
61
58
59
58
61
61
61
60
56
57
60
61
60
59
55
55
51
53
48
46
43
44
47
45
45
42
38
35
35
33
150
148
149
147
148
148
147
146
147
147
146
146
147
143
145
143
143
143
141
139
135
132
131
131
121
125
151
174
174
171
165
132
112
118
119
124
121
112
123
119
115
116
114
114
110
111
109
112
121
120
112
104
104
108
105
103
106
117
108
105
131
97
100
97
92
90
74
38
14
9
7
4
4
4
5
9
10
5
10
9
11
9
6
9
16
32
47
58
61
61
59
59
58
60
62
63
60
61
60
61
63
61
61
57
55
56
55
54
51
48
45
44
43
45
48
45
42
39
35
33
149
148
145
144
145
147
147
148
149
149
147
147
147
146
143
143
141
139
138
136
133
131
131
129
121
132
165
175
173
163
148
119
114
119
121
126
132
114
119
117
119
112
110
115
117
113
111
118
114
117
119
107
104
108
109
106
112
109
116
111
104
104
98
96
93
88
76
52
31
25
22
14
10
7
3
5
4
2
6
7
9
8
9
12
21
36
51
60
61
62
64
62
61
59
62
61
58
55
56
62
65
61
63
58
60
59
57
55
59
54
51
48
44
45
45
45
44
39
36
35
148
147
146
146
146
148
147
147
148
148
148
147
146
144
143
141
139
138
137
135
132
133
128
119
123
155
174
171
167
148
126
124
119
118
113
112
122
134
127
125
110
103
103
109
119
110
121
131
115
112
120
117
107
120
119
106
113
105
111
107
99
105
97
97
93
89
79
63
42
32
37
37
34
27
17
11
4
2
3
7
13
11
10
14
25
41
53
60
62
63
63
64
60
60
61
60
59
58
59
64
63
62
63
61
60
57
56
55
53
54
57
54
52
50
50
48
44
42
37
35
150
149
149
149
148
147
146
147
148
147
148
147
144
143
141
140
139
138
136
134
133
135
126
124
144
166
175
167
160
131
113
118
126
122
115
115
135
150
130
116
113
111
106
109
116
112
135
135
129
130
123
123
114
120
111
97
98
105
103
108
97
95
96
97
94
92
86
86
61
36
36
41
42
45
39
34
25
15
7
4
5
9
12
15
29
49
57
61
61
62
63
60
60
62
62
63
60
61
62
63
66
66
62
64
64
58
58
57
57
60
60
58
54
54
55
53
50
47
45
36
150
150
149
149
149
148
148
148
149
149
147
146
145
144
143
141
139
139
137
136
136
129
125
143
157
174
174
154
152
126
113
111
121
124
122
122
125
126
117
110
112
116
112
110
116
111
119
118
127
131
121
121
123
112
107
103
101
103
103
106
98
93
103
98
94
91
83
84
62
37
37
41
40
39
36
37
40
36
28
20
9
10
12
18
36
55
60
61
61
60
62
63
62
62
62
64
63
64
64
66
66
66
64
64
69
65
70
59
58
58
64
70
62
57
54
51
51
46
44
38
151
151
150
148
149
148
148
148
149
149
147
143
144
145
145
143
141
141
139
138
136
129
129
152
167
174
170
145
140
127
115
109
115
119
117
124
120
111
114
118
120
115
136
120
118
118
107
109
112
119
131
116
125
120
111
100
102
105
115
102
98
95
104
97
94
90
85
78
62
36
32
35
35
36
35
32
32
35
37
29
11
10
13
23
42
56
58
61
63
60
61
62
62
59
62
63
61
63
64
66
67
64
67
68
67
63
69
61
61
60
62
64
63
60
59
53
50
48
43
37
152
151
150
149
149
148
148
148
149
149
147
142
141
142
144
142
141
140
138
137
134
127
140
167
179
176
157
141
126
120
120
117
115
122
124
123
128
125
121
122
120
119
132
115
118
118
112
108
113
120
122
114
123
126
115
97
96
104
117
104
100
108
99
97
106
86
83
73
61
52
46
32
27
27
25
25
24
25
24
18
11
12
15
27
45
56
58
61
64
62
60
60
60
60
62
62
63
62
62
67
66
68
67
67
61
61
60
60
60
62
64
60
71
70
59
56
55
56
45
39
153
152
152
150
150
149
148
148
147
147
146
143
140
141
143
141
140
139
138
137
131
123
144
175
185
179
141
130
128
131
122
119
119
120
129
119
127
127
119
117
121
122
117
114
114
115
114
119
115
116
113
111
116
127
123
99
95
93
102
96
95
101
96
94
92
82
80
76
67
60
57
44
20
16
15
15
14
14
15
13
12
13
16
30
46
56
60
64
66
62
60
60
61
62
63
64
64
64
65
68
70
65
68
69
62
64
66
63
69
69
63
65
66
62
64
59
57
53
47
38
153
153
151
150
151
151
150
148
148
148
147
146
143
141
142
142
140
139
138
136
134
139
160
181
184
167
142
132
120
124
111
114
111
111
113
120
125
112
115
114
119
119
125
130
119
114
112
113
110
122
127
109
113
117
136
119
101
94
96
96
91
86
76
80
85
86
82
80
72
61
57
56
22
12
11
12
11
11
13
13
13
14
18
32
48
60
66
68
63
62
56
60
62
66
66
67
66
67
66
65
67
63
62
66
64
67
64
63
67
64
68
69
63
67
65
65
61
56
55
40
152
152
151
150
149
149
149
148
148
147
146
146
145
141
142
143
141
140
138
135
127
138
166
184
181
153
145
125
128
114
111
108
117
110
114
120
128
113
113
110
114
115
117
114
116
116
111
110
111
116
114
112
112
115
130
139
121
104
110
116
88
81
78
94
85
90
87
78
70
63
59
49
17
12
11
10
10
11
14
15
13
16
21
36
52
64
68
65
64
60
67
65
65
65
62
68
67
66
69
69
66
65
62
71
69
67
70
69
74
67
69
73
72
69
66
67
68
60
51
43
152
152
152
151
150
150
148
148
148
148
147
146
145
143
142
141
142
140
139
132
121
146
172
180
177
153
130
116
116
111
111
125
105
110
119
130
126
108
112
112
112
121
112
133
118
117
113
116
116
116
115
114
113
114
124
143
154
153
139
100
84
80
80
85
80
80
80
71
64
59
52
21
10
10
11
9
11
10
14
16
15
17
23
41
58
65
67
68
63
67
69
68
64
67
68
64
64
66
70
76
77
73
69
70
72
69
68
68
70
66
65
69
67
68
66
67
68
61
52
44
153
152
150
150
149
149
150
150
148
147
147
146
145
144
143
143
142
140
138
132
133
153
173
181
179
160
124
116
112
113
110
111
113
114
110
118
119
107
115
117
114
129
121
128
107
113
119
117
114
112
110
113
121
121
121
145
150
159
151
94
77
83
80
79
80
77
74
62
58
58
55
24
9
8
10
10
10
10
15
14
16
18
24
42
60
65
63
56
69
73
67
71
66
67
67
66
67
68
66
65
69
74
75
66
67
62
64
63
65
64
58
63
70
64
65
68
66
57
49
42
152
151
151
152
151
150
148
148
149
148
148
147
146
145
144
143
142
140
136
122
130
156
175
180
176
153
149
121
114
116
116
117
118
126
105
145
145
104
114
125
120
109
112
107
135
127
113
114
124
121
113
112
121
119
123
163
169
171
130
105
77
82
80
82
83
76
66
58
59
60
58
36
11
7
8
8
8
11
15
17
17
18
25
44
60
61
62
65
68
67
75
70
66
69
71
70
72
71
67
68
70
70
72
69
68
70
66
65
68
67
72
67
63
68
68
66
62
52
50
46
153
151
151
150
150
149
149
150
149
148
149
148
146
146
145
143
142
142
138
124
135
155
177
180
181
151
158
133
116
113
114
113
114
113
110
118
106
115
119
119
109
106
107
110
117
107
126
106
112
109
116
118
119
125
142
168
171
165
133
137
76
82
81
95
80
78
67
60
63
61
57
40
11
6
6
6
8
13
17
17
19
19
26
46
61
68
67
68
69
76
72
76
75
71
69
70
72
70
77
77
89
77
70
67
66
68
63
65
66
71
66
64
67
67
63
58
56
55
52
47
152
151
150
150
152
151
151
150
150
149
149
148
147
145
147
143
143
140
133
121
142
170
179
177
179
162
162
143
115
109
115
105
115
107
106
109
112
111
107
108
112
112
113
115
126
110
110
111
111
114
120
115
143
146
152
176
177
170
147
101
79
80
78
78
75
81
71
64
66
61
59
52
21
8
5
6
10
15
18
19
19
19
32
52
62
68
71
68
70
73
73
81
79
71
71
72
78
80
73
70
68
68
71
75
66
69
65
63
67
69
67
62
58
60
61
56
50
51
49
48
153
151
153
153
152
152
152
152
152
150
149
149
146
144
143
141
137
131
121
138
157
177
182
176
173
164
163
153
127
115
115
111
114
115
113
114
119
114
111
116
115
117
122
107
147
105
112
111
114
112
118
123
117
128
152
172
176
172
155
112
92
88
88
72
75
83
73
71
68
62
60
60
43
9
6
6
10
15
18
17
17
22
40
58
65
67
67
71
72
79
84
84
76
88
85
83
76
81
85
78
75
79
76
75
75
71
71
66
67
66
68
65
63
63
63
57
59
54
52
49
154
152
154
153
153
153
152
151
149
147
145
143
139
135
130
124
118
114
119
144
166
182
178
173
174
166
160
139
133
124
124
126
126
135
139
127
128
122
120
143
124
120
120
111
102
108
111
118
114
112
113
113
136
160
141
145
168
170
159
128
119
103
89
84
75
80
79
79
74
66
64
56
47
11
5
7
12
16
17
17
17
28
49
64
68
70
68
72
72
86
88
112
90
87
101
87
82
86
91
85
81
81
81
79
71
68
69
66
68
68
65
65
63
62
62
60
58
54
51
50
155
154
153
153
152
150
147
144
140
136
130
124
118
114
109
106
106
107
122
142
163
182
181
176
171
159
128
123
126
120
123
117
122
142
118
124
122
122
126
124
128
126
131
123
122
120
125
128
123
120
131
148
176
162
140
130
141
156
149
138
135
126
114
91
84
83
85
79
75
69
71
65
54
18
5
7
15
17
17
17
18
34
59
66
68
68
70
69
74
78
87
81
88
98
118
88
84
79
73
85
82
90
81
72
71
78
69
67
64
63
61
65
63
61
64
62
58
54
53
49
153
150
147
144
139
133
127
122
116
113
111
111
110
110
111
113
116
122
126
144
170
184
182
172
164
137
125
126
123
121
134
115
117
108
112
114
121
124
118
120
126
125
150
134
131
130
133
135
152
143
174
179
172
161
138
125
115
138
141
138
136
118
114
97
94
86
74
72
74
74
80
81
59
31
5
9
18
18
17
16
20
40
61
64
67
68
69
68
68
79
95
91
108
109
90
90
96
95
90
78
74
92
85
74
68
78
68
71
65
63
64
65
63
63
65
62
58
53
53
47
136
130
126
122
121
119
119
118
118
118
121
126
131
135
139
140
137
133
138
157
172
178
176
165
143
128
135
127
115
120
120
118
118
114
119
125
121
120
116
117
119
115
121
122
121
123
133
139
143
148
152
157
170
173
156
133
137
120
130
134
129
121
114
103
99
85
75
75
76
76
82
89
74
48
10
12
19
18
17
15
20
39
59
65
72
75
73
64
74
76
97
89
103
109
100
88
91
89
93
81
81
87
76
87
77
73
71
69
67
63
62
64
64
62
60
60
57
55
51
46
129
127
129
129
131
133
137
139
142
141
140
140
138
137
134
134
132
128
141
162
177
179
171
157
128
116
123
124
123
120
122
117
127
123
118
124
116
112
112
111
110
113
114
114
115
115
127
124
125
138
150
150
175
175
169
159
147
107
109
109
110
125
121
111
106
94
83
84
81
73
79
89
89
61
25
12
19
18
17
15
19
35
54
65
75
73
70
76
71
69
91
77
98
98
92
92
90
79
84
85
88
80
81
86
87
73
70
67
66
63
61
63
64
60
63
61
57
53
47
50
140
143
143
143
142
140
139
137
137
137
137
137
136
135
135
134
132
127
139
157
178
184
164
144
123
120
132
130
123
116
120
117
123
119
113
110
111
111
109
110
111
115
118
114
114
112
117
126
125
128
153
170
174
167
152
146
137
105
96
95
100
111
120
122
120
110
91
93
89
74
77
91
91
64
39
10
18
17
17
14
16
27
45
62
75
64
70
77
75
68
90
71
97
91
96
94
90
92
84
83
84
72
85
82
77
71
68
65
64
62
60
60
59
54
59
58
62
62
55
53
138
138
139
138
137
138
138
138
138
139
139
138
138
136
134
133
131
126
143
163
183
183
155
133
126
125
130
127
117
114
117
124
113
108
110
107
113
115
120
116
107
110
118
132
121
112
115
117
118
118
133
168
166
159
149
143
135
125
93
93
90
107
121
135
135
122
100
89
87
78
78
95
95
69
46
10
16
16
15
13
14
20
36
58
74
68
76
73
68
70
76
82
102
107
85
85
90
91
83
81
79
75
80
77
69
67
59
61
60
62
71
75
82
88
97
97
101
104
104
97
138
139
137
138
139
140
141
142
141
139
139
138
136
135
134
133
132
125
143
164
179
174
146
129
131
127
129
128
123
123
122
121
119
120
131
153
153
168
178
176
154
147
131
122
122
122
111
115
138
110
122
145
134
137
145
138
136
132
101
93
91
97
106
126
125
125
118
102
88
84
87
111
109
79
60
18
15
15
13
12
13
17
32
55
69
65
92
79
64
71
72
81
96
96
71
72
74
80
83
82
76
74
72
70
67
62
81
92
104
107
110
118
126
132
133
138
144
145
147
143
139
140
141
140
141
142
142
143
143
140
138
136
133
133
133
134
134
123
137
155
167
167
143
129
132
132
133
130
130
127
132
141
151
137
155
186
142
132
133
128
124
130
122
112
117
130
143
110
123
115
129
141
115
117
136
138
134
115
100
98
98
84
79
93
116
134
127
115
101
97
105
112
147
116
66
33
10
14
12
11
12
16
31
58
67
63
74
79
62
69
77
74
84
83
94
94
80
93
87
75
69
67
65
75
79
92
113
134
149
150
150
153
156
157
155
159
161
160
160
157
142
141
142
143
142
143
144
144
144
142
140
136
133
133
134
135
136
120
133
153
165
165
145
130
136
137
132
128
128
127
133
132
134
150
147
136
120
117
108
118
139
141
127
119
117
124
118
114
123
130
145
145
119
102
105
113
131
114
110
109
108
93
67
75
104
142
145
127
109
104
102
123
153
146
85
54
15
11
10
10
11
18
36
56
67
61
67
71
71
68
83
70
73
87
80
76
72
70
69
65
61
75
91
110
126
143
155
162
164
160
156
150
151
156
157
150
143
140
140
143
143
142
144
144
143
145
144
144
144
143
140
138
135
135
136
137
138
124
134
156
171
171
151
131
137
133
132
137
133
131
136
152
162
135
134
128
118
126
124
141
153
131
122
120
125
134
114
119
130
154
156
158
145
115
100
112
110
111
128
122
127
114
100
91
114
144
140
126
116
102
95
113
138
140
122
64
29
9
9
10
10
16
35
52
62
61
59
64
66
71
86
87
82
71
77
80
61
62
70
92
109
127
143
155
163
166
160
154
142
139
134
132
136
139
140
137
138
137
142
130
144
144
144
145
145
144
145
143
142
142
140
138
138
137
136
137
136
126
144
166
171
167
159
143
136
130
131
136
127
128
132
127
123
131
132
140
146
135
123
134
123
137
126
113
109
110
118
130
146
150
158
160
138
132
140
110
98
115
132
135
127
124
122
110
135
135
126
122
126
121
118
136
128
141
129
70
34
6
8
7
8
14
32
49
62
67
67
66
61
64
92
85
78
68
69
80
77
91
108
127
147
161
165
165
156
143
141
133
132
133
133
134
134
136
136
136
136
132
133
132
102
112
125
135
139
145
146
141
137
141
139
135
134
135
136
135
132
112
131
166
173
170
166
150
136
139
137
131
131
127
122
126
147
141
134
137
137
154
157
147
131
114
102
112
116
131
127
131
133
134
147
149
130
121
125
122
125
142
106
123
124
119
138
146
147
143
137
125
132
132
130
129
119
121
120
72
48
5
6
7
7
10
25
46
55
56
79
73
66
65
69
73
77
71
66
73
109
132
153
164
167
164
136
134
129
134
134
132
132
133
134
131
132
135
132
131
128
128
129
125
70
65
69
73
86
98
120
130
138
139
137
135
134
134
133
133
133
121
145
169
179
178
167
150
137
125
124
128
122
117
116
119
111
127
136
133
116
120
115
107
105
112
116
123
118
131
120
127
112
119
117
127
148
131
117
127
152
132
121
112
113
123
154
158
150
154
151
134
121
111
108
106
106
109
111
86
64
12
6
5
6
8
19
42
56
56
64
70
73
73
63
68
68
78
101
120
150
166
167
165
158
135
132
131
129
129
125
132
126
129
128
129
132
129
127
124
123
124
121
127
93
94
87
83
71
59
60
66
76
100
121
128
130
133
133
135
134
117
139
159
180
178
166
147
130
127
132
122
116
135
143
136
121
120
119
126
126
116
123
123
120
129
124
129
111
114
119
128
117
115
111
109
126
135
142
126
141
141
140
128
113
126
152
150
143
143
150
145
122
100
97
99
94
95
90
82
70
28
4
5
6
7
12
31
47
55
59
59
61
60
60
63
78
118
144
158
166
161
155
158
149
135
131
130
129
125
128
127
125
124
124
127
128
123
121
123
123
120
124
122
93
95
99
95
92
98
94
84
72
62
61
72
90
107
120
127
132
116
131
148
169
179
164
144
134
130
126
121
124
162
116
112
118
124
111
107
110
115
122
124
116
111
110
117
114
114
116
116
110
109
110
122
128
124
164
179
175
175
173
165
160
146
144
146
139
137
143
148
128
98
89
88
89
87
86
82
74
44
2
5
5
5
8
19
32
48
58
64
63
59
57
92
143
159
168
159
145
138
137
140
138
131
129
128
127
124
125
123
122
121
124
124
123
122
123
123
120
121
118
121
99
116
99
122
112
110
100
106
91
87
83
67
54
57
78
89
114
111
128
145
164
173
163
142
123
123
121
127
139
115
112
113
115
116
111
119
120
120
110
107
107
105
106
112
107
117
114
107
109
111
116
121
119
121
153
176
177
176
170
161
157
146
145
147
139
132
128
134
123
97
86
85
83
82
81
80
74
58
9
4
5
6
6
10
20
35
47
54
57
71
100
145
165
162
149
132
131
135
138
136
135
128
128
122
122
122
123
122
120
122
122
124
123
121
120
118
118
117
120
121
101
127
112
121
129
109
98
102
101
98
105
93
84
68
66
58
69
82
102
129
155
158
155
143
121
132
126
135
104
109
118
107
112
148
135
153
103
101
111
106
103
113
110
109
108
112
108
108
118
113
118
115
118
115
142
164
165
164
156
151
153
156
146
139
142
136
122
119
104
87
83
82
79
78
76
75
76
64
21
2
5
6
6
7
12
24
36
47
67
109
134
163
155
135
136
132
135
135
134
132
130
129
127
123
122
122
121
121
120
121
122
122
120
120
118
116
117
121
119
118
112
107
119
117
123
112
108
114
111
106
111
99
106
87
80
58
54
54
61
89
125
137
141
138
125
116
109
108
115
114
120
124
131
123
131
99
118
136
145
113
104
139
117
111
104
109
103
107
112
111
126
126
114
115
140
157
149
143
143
139
137
159
156
136
139
129
108
98
89
81
80
80
76
75
74
73
75
67
35
1
4
4
6
7
7
15
29
59
120
148
160
156
136
132
133
134
134
132
131
130
130
130
125
123
122
122
121
120
121
121
122
119
118
118
117
115
121
118
116
116
121
115
114
128
113
118
117
120
115
108
114
111
119
97
96
77
66
59
60
62
76
103
117
118
117
112
110
114
126
109
108
112
132
109
116
114
165
167
121
101
106
109
106
108
106
105
106
110
114
112
143
151
101
117
154
166
148
125
128
129
135
167
157
136
137
116
88
81
79
77
78
78
75
72
71
71
73
70
44
3
4
5
5
6
6
9
58
119
152
167
151
135
128
131
129
129
129
129
129
128
128
129
124
122
120
123
119
119
119
120
118
117
117
116
115
119
119
115
116
116
116
129
117
124
119
127
122
111
115
107
116
103
116
99
108
88
92
71
63
62
50
59
77
91
98
103
108
111
121
129
108
114
103
93
95
112
134
108
92
104
107
101
99
110
125
113
116
110
113
116
132
126
104
126
158
161
140
116
129
119
137
174
146
141
131
101
92
87
86
86
84
81
79
79
71
67
71
71
51
7
4
4
5
5
6
48
118
152
164
147
132
127
127
128
126
126
126
127
126
126
127
129
122
120
119
122
119
120
119
120
116
117
116
115
117
117
116
116
118
117
115
119
110
113
115
119
119
111
115
113
117
108
107
112
114
96
102
87
62
52
52
44
48
65
77
83
92
97
101
125
86
105
94
100
104
92
95
99
101
108
112
105
110
105
132
108
114
116
116
110
111
108
119
134
131
129
115
105
124
111
140
179
162
152
123
100
93
93
101
103
96
87
97
92
78
63
69
69
56
19
2
4
4
3
51
112
148
165
145
129
129
130
128
128
128
128
126
125
124
124
125
126
122
120
118
119
117
120
120
118
117
115
116
117
117
116
116
117
116
116
112
108
109
117
107
116
121
115
124
113
109
115
107
121
111
96
105
104
90
59
56
48
42
49
62
70
74
78
79
92
79
87
90
89
96
90
91
92
113
107
102
100
102
118
112
112
119
132
114
111
108
113
122
120
109
128
104
98
101
106
149
173
173
134
119
118
111
85
105
118
104
90
99
94
84
70
68
70
63
33
3
4
0
42
114
147
164
148
128
128
127
128
127
126
126
127
126
125
125
124
125
122
123
120
119
119
118
119
119
117
116
115
117
115
115
116
116
114
115
117
123
120
114
128
107
121
143
129
111
106
118
116
110
118
108
105
106
108
108
74
56
54
44
42
50
62
67
72
74
79
83
85
85
78
84
85
89
99
110
101
119
119
122
111
110
110
116
133
114
112
117
119
121
116
108
113
104
97
92
109
133
163
140
126
137
129
114
88
99
113
104
100
92
91
86
75
64
68
68
43
6
0
28
105
151
165
149
130
127
126
122
125
129
126
125
124
123
123
123
124
123
121
124
120
119
119
120
119
118
117
115
117
116
122
118
116
119
122
122
123
119
108
115
115
112
113
109
114
109
111
123
112
114
110
126
103
104
98
103
90
70
51
46
41
43
57
67
69
71
73
79
89
77
75
80
85
91
93
107
95
131
120
129
106
103
109
128
119
107
115
119
115
128
123
106
95
95
97
94
105
111
153
108
117
129
126
112
99
93
116
117
101
95
91
89
79
62
63
65
53
14
25
99
143
160
162
134
128
128
126
126
127
126
125
124
123
123
124
124
124
122
120
123
120
118
119
118
117
115
114
117
117
114
116
119
123
123
125
124
121
115
104
115
118
110
101
103
112
110
108
123
110
111
110
124
113
111
108
94
97
90
60
54
46
41
48
64
69
68
68
74
78
75
75
78
81
84
84
85
93
115
105
112
98
94
141
133
106
122
120
108
134
141
112
103
100
101
106
108
111
114
134
110
114
117
114
118
120
109
105
104
98
98
92
92
85
64
61
62
55
49
97
137
156
163
150
136
134
129
128
126
125
123
124
124
123
123
124
123
125
123
122
123
122
117
118
117
124
116
117
115
114
117
121
122
123
124
122
121
118
103
98
128
107
119
97
112
109
106
118
117
101
106
114
113
107
110
106
102
105
111
70
44
39
41
43
56
66
64
67
70
71
73
75
75
79
80
80
89
100
96
97
98
92
99
117
114
109
109
124
118
125
137
118
100
101
101
104
110
106
129
125
114
115
115
112
115
124
123
109
100
98
96
97
89
87
68
61
60
65
105
143
161
163
145
143
144
140
139
136
133
130
128
125
123
122
123
123
122
123
122
122
126
125
117
118
134
151
144
127
120
119
121
121
121
122
122
120
120
122
101
83
113
96
102
90
110
109
107
118
99
113
110
115
108
103
97
114
105
90
111
108
50
45
41
43
47
65
65
65
68
68
69
71
72
74
75
80
88
91
84
97
104
91
105
134
112
125
131
115
99
117
115
102
107
103
102
113
104
105
128
114
112
116
114
112
107
115
119
109
104
104
106
98
90
86
79
60
60
90
139
155
163
144
133
135
139
139
133
130
129
130
129
130
129
128
126
123
121
120
121
122
121
136
144
152
156
159
146
127
123
119
118
119
123
124
121
116
115
115
142
56
86
80
59
74
92
84
105
72
93
106
117
116
96
104
116
113
97
93
94
98
65
47
46
45
44
58
66
66
68
68
68
70
71
71
72
74
78
79
81
112
101
109
117
105
101
103
102
101
104
105
104
105
111
118
111
110
103
103
126
112
120
128
113
112
107
106
112
155
125
97
108
98
89
85
81
66
73
129
139
158
147
131
132
132
132
132
133
131
129
130
129
128
128
128
129
131
131
127
122
121
136
154
152
152
151
152
148
125
118
116
118
120
121
120
119
121
122
122
69
65
50
77
47
79
71
75
78
37
102
114
102
107
104
110
109
111
101
98
93
88
71
49
43
44
46
54
66
66
66
68
67
69
70
72
72
75
76
77
83
93
101
103
95
98
109
122
100
105
110
131
117
98
120
116
100
108
99
111
122
113
124
116
115
112
106
108
110
120
109
105
109
98
89
87
84
77
122
152
166
155
132
125
126
129
128
127
129
128
127
126
127
128
129
128
128
128
130
129
131
136
145
158
152
159
152
142
135
131
130
131
131
131
129
129
128
125
125
125
51
78
60
80
76
81
69
84
80
82
102
90
97
106
117
117
112
108
116
138
128
96
86
60
46
45
45
50
63
67
66
66
68
68
69
71
70
72
74
76
83
87
100
105
105
109
128
106
111
104
125
140
95
117
132
130
126
107
98
117
118
111
112
117
116
112
119
119
112
108
105
104
110
102
90
83
80
92
141
161
161
136
127
128
126
126
128
131
127
127
125
127
134
128
127
125
126
126
126
125
134
146
131
147
151
156
143
127
127
126
125
123
125
124
124
123
121
121
121
119
46
46
42
73
69
52
59
80
82
97
94
99
113
121
114
108
114
110
121
116
100
105
99
69
51
45
46
47
60
62
65
64
67
67
66
69
71
70
69
73
77
80
90
108
115
125
109
109
97
119
143
106
99
110
109
105
102
99
102
117
109
114
135
114
115
119
120
111
106
104
113
107
106
99
90
86
82
130
148
164
151
125
127
127
128
127
125
124
126
127
126
124
124
124
125
125
128
134
128
129
149
154
144
125
142
152
131
126
125
123
123
122
122
121
119
118
119
117
115
116
87
91
72
76
68
57
78
91
92
85
100
111
113
112
105
107
118
114
107
116
127
113
101
76
55
46
44
46
53
56
59
61
63
64
64
63
64
65
65
67
71
77
89
82
127
105
97
105
105
114
112
91
97
131
118
110
101
99
108
117
116
119
118
118
118
109
120
123
110
106
104
104
107
101
89
93
107
141
161
162
141
121
123
127
130
127
125
125
125
126
125
126
126
128
129
130
132
132
130
132
145
150
148
149
142
138
131
125
123
122
120
119
120
119
117
115
115
117
115
113
107
109
114
96
101
88
99
88
88
99
100
95
95
108
111
115
118
117
112
106
107
103
100
87
63
50
45
45
48
52
55
57
60
61
59
58
60
62
64
66
72
81
84
86
84
86
121
121
101
96
98
97
100
110
109
113
102
101
115
113
116
110
120
125
127
116
111
120
117
104
103
115
104
108
96
96
130
144
160
162
141
123
124
137
133
126
128
129
129
130
130
136
136
136
136
133
131
129
128
132
141
151
151
149
136
132
131
128
121
118
117
118
115
115
116
114
113
112
112
113
135
117
127
125
122
111
96
89
91
82
78
86
97
103
113
109
109
111
112
111
110
111
104
88
63
48
45
45
46
51
53
55
57
60
59
60
60
62
63
66
68
85
83
84
90
94
103
93
96
98
95
96
98
114
114
112
107
107
116
109
113
117
128
112
128
127
112
113
119
110
102
118
104
106
102
107
138
150
165
160
146
135
134
136
135
132
130
131
132
135
132
131
129
130
128
128
127
128
129
130
133
147
153
138
125
122
119
121
124
119
115
115
112
110
111
113
112
110
110
111
155
152
148
146
142
125
95
85
84
84
81
68
90
84
100
103
108
117
114
111
108
105
103
96
68
49
46
46
45
48
52
57
58
61
59
59
60
62
63
64
66
85
77
79
85
104
97
96
91
100
105
104
102
111
113
106
108
115
115
107
117
116
110
106
115
105
112
114
116
109
99
108
105
103
103
119
140
164
161
153
143
142
138
133
132
129
128
130
131
131
128
127
128
128
127
126
127
128
128
129
131
133
135
125
118
117
110
111
116
117
116
114
115
114
110
111
110
109
110
110
162
158
157
153
148
130
96
91
85
77
65
39
88
92
105
114
115
113
116
114
110
105
100
100
68
50
46
43
45
46
51
57
59
60
58
60
60
62
64
65
66
64
69
79
89
97
93
90
92
113
134
103
107
111
113
106
104
116
111
113
112
103
105
103
115
109
116
113
120
112
99
105
108
105
104
132
151
165
158
142
135
134
131
129
130
130
131
128
125
124
125
125
126
124
125
127
127
125
126
125
119
113
113
111
107
119
127
107
112
113
114
115
118
114
109
110
110
109
109
108
160
161
161
156
150
138
111
88
80
76
75
65
71
78
84
105
112
117
121
111
117
106
98
102
71
50
46
47
41
48
48
57
59
59
59
59
59
61
62
64
65
69
73
77
82
87
106
92
95
112
123
96
107
101
109
110
110
114
115
114
108
115
107
106
107
105
115
107
111
111
104
102
109
108
105
138
159
166
155
133
130
128
127
126
126
128
128
125
122
123
124
125
125
126
126
126
125
126
122
112
107
107
112
106
104
107
125
110
113
110
110
114
115
112
107
108
108
109
108
108
160
165
160
154
148
141
125
98
83
78
55
37
64
68
71
103
103
108
117
104
111
110
104
100
72
58
47
44
41
44
47
55
61
60
59
59
60
61
61
62
65
70
71
81
82
97
116
90
95
100
102
103
106
103
105
109
113
116
117
108
125
113
113
105
106
114
106
109
110
107
106
100
100
106
104
141
159
165
149
123
124
122
124
123
123
122
121
120
121
122
125
126
126
124
124
124
124
122
111
106
105
106
110
105
106
102
108
109
112
111
112
113
114
115
112
107
106
108
109
108
161
159
154
147
138
130
120
104
81
72
66
62
79
89
109
139
113
120
108
111
108
106
100
103
72
58
47
40
42
42
47
53
62
61
59
60
61
61
62
63
65
67
68
75
86
102
103
90
95
100
103
100
102
103
106
113
115
127
107
116
163
92
112
108
108
104
110
110
106
104
105
103
104
103
130
142
164
163
143
120
122
122
122
122
121
120
121
119
121
124
125
124
123
123
123
123
121
114
108
105
106
110
108
110
109
107
110
111
112
113
111
110
109
108
111
110
106
108
109
106
154
150
144
137
113
89
85
101
97
83
87
101
62
42
82
122
113
119
118
115
101
98
95
102
79
51
46
42
42
42
44
51
60
62
58
60
60
62
64
64
65
66
71
73
86
95
92
91
96
100
102
100
106
103
99
112
120
114
105
123
107
97
109
108
109
102
109
107
108
105
104
105
106
102
120
152
163
161
141
120
120
120
121
121
119
119
120
123
126
125
123
122
121
122
120
119
115
110
109
105
107
112
111
112
112
109
111
110
111
111
110
110
109
108
111
114
113
108
105
103
138
133
126
110
98
81
99
86
72
90
86
96
92
80
107
106
113
110
113
111
112
102
88
89
71
54
46
40
40
37
42
49
58
62
59
60
60
61
62
63
66
71
73
80
86
102
97
94
106
107
100
103
110
102
100
110
118
106
100
110
95
104
121
104
109
109
115
107
106
105
110
107
103
99
121
143
158
161
145
117
120
122
122
115
116
120
124
129
125
121
123
121
122
120
118
118
114
107
104
106
113
113
113
114
113
109
111
110
109
110
110
110
111
111
114
117
116
122
122
129
112
89
92
94
101
122
106
105
84
111
104
65
61
94
115
112
116
107
104
104
104
96
92
90
58
50
43
38
36
35
44
47
53
61
63
60
60
60
62
63
66
74
76
83
90
94
92
92
95
100
107
99
112
104
106
117
110
109
99
102
100
109
135
101
109
116
118
112
105
109
112
109
107
106
122
138
154
163
150
121
123
123
124
121
120
127
131
127
123
122
120
120
120
117
116
115
113
118
121
120
105
100
109
113
114
110
110
110
110
110
109
110
112
110
109
109
110
129
142
144
75
91
64
81
75
76
77
58
74
103
95
97
83
86
93
118
119
129
110
105
106
100
93
88
62
46
43
37
35
33
40
44
50
56
64
62
62
62
63
63
64
72
76
82
85
97
88
97
94
104
122
107
117
115
116
119
106
104
99
104
106
110
111
105
109
111
111
112
109
113
112
108
108
117
115
142
152
157
157
142
128
129
128
126
126
129
126
124
119
119
117
120
118
115
116
110
109
121
128
116
104
105
109
113
110
108
110
109
107
108
111
111
111
108
107
108
124
143
146
136
85
52
66
58
81
95
70
52
119
129
93
98
111
100
94
104
107
114
110
111
97
100
110
89
59
46
42
38
30
25
37
42
46
53
58
62
63
63
64
64
67
71
73
77
86
94
92
103
101
101
108
113
116
117
114
106
108
106
109
115
109
108
105
108
111
111
108
124
125
111
109
127
111
115
112
136
144
156
160
158
148
131
126
128
128
121
121
124
119
118
118
116
116
116
111
111
114
110
108
112
110
108
108
111
111
108
111
107
108
109
109
110
110
109
110
131
146
145
135
127
71
54
103
72
89
103
92
49
98
162
126
108
110
111
108
111
110
110
110
105
97
93
88
79
60
47
40
34
26
24
27
39
43
48
51
57
63
64
64
65
70
77
78
82
86
96
110
89
94
102
115
105
106
115
118
104
112
112
114
104
115
110
100
110
113
113
112
129
132
109
107
108
107
111
110
125
143
160
161
158
141
124
126
123
118
118
119
118
117
116
114
114
115
112
113
112
112
110
109
110
108
107
111
110
113
108
108
111
109
109
108
107
107
116
137
145
137
130
118
105
71
69
64
78
79
90
81
71
88
97
106
112
109
122
121
116
115
112
109
108
108
96
89
78
51
40
36
26
15
21
27
32
37
43
48
53
57
65
66
64
69
77
74
80
88
97
95
98
96
102
128
130
110
119
115
115
120
111
100
106
109
109
106
109
118
127
120
122
121
109
111
115
112
114
112
110
136
149
160
160
144
120
116
120
118
116
115
118
117
114
115
115
112
113
113
111
110
109
108
109
107
107
111
109
116
107
108
107
107
107
108
114
131
145
148
140
130
114
104
98
64
66
73
82
84
59
47
74
86
103
109
133
120
118
124
112
115
124
101
98
89
88
90
66
44
38
35
20
6
12
23
26
33
38
44
48
52
57
66
68
69
77
80
85
87
96
107
95
105
115
140
111
122
122
116
113
115
105
107
105
103
112
109
109
121
131
113
107
110
109
102
109
116
114
109
101
117
139
148
157
155
136
118
115
115
116
118
117
114
114
115
112
113
113
113
109
108
112
110
107
107
107
114
110
110
107
107
108
108
118
133
149
153
147
137
126
110
102
93
87
61
82
77
97
105
70
64
81
97
102
113
116
126
122
109
111
113
117
103
105
93
88
78
55
45
36
31
15
6
5
14
23
27
32
40
44
49
52
57
65
73
89
102
105
101
96
97
102
108
120
106
111
138
126
113
121
111
107
107
109
113
102
119
119
118
116
110
112
109
107
106
116
109
110
106
104
108
132
140
148
154
154
139
121
113
114
113
114
113
118
114
112
114
112
110
108
108
107
106
111
111
110
126
116
111
110
111
116
133
150
151
144
138
130
119
109
100
93
83
77
60
75
69
119
83
64
87
101
107
102
112
123
118
124
116
114
108
113
107
96
91
90
71
47
37
31
22
7
5
5
5
13
23
26
36
40
44
47
51
59
77
101
126
141
146
141
132
137
131
119
128
150
156
132
115
114
110
114
106
129
165
111
117
114
115
118
131
127
113
112
120
114
112
111
107
109
124
121
132
136
147
155
155
147
127
119
117
117
124
133
117
112
112
110
112
116
111
108
106
108
108
118
147
141
140
149
152
149
147
143
139
136
124
111
103
98
91
82
76
68
54
74
60
95
87
88
88
114
116
113
115
120
120
121
117
113
107
107
107
97
92
81
63
41
34
24
11
6
5
6
4
5
12
23
29
33
38
44
49
59
81
110
136
150
157
163
161
164
157
155
151
160
158
137
138
141
108
111
111
112
120
140
113
113
121
147
132
110
111
112
122
117
128
117
105
130
125
113
126
127
136
143
146
152
153
149
146
147
153
145
126
117
109
107
107
108
107
109
112
115
126
148
167
152
162
159
144
142
136
130
124
117
107
101
94
90
84
76
71
68
71
77
73
65
95
115
116
115
120
115
115
115
116
115
118
111
105
103
99
96
90
76
52
35
29
17
7
5
4
5
5
5
5
10
21
29
33
41
50
64
87
116
140
151
162
165
166
164
167
169
163
160
156
151
138
120
111
111
119
106
128
106
119
119
122
123
120
118
114
120
119
130
143
136
138
137
131
121
116
122
123
126
131
140
147
149
151
148
149
153
149
136
127
123
121
122
122
128
135
144
147
146
146
144
141
133
127
127
119
115
110
104
98
91
86
82
76
71
71
71
78
78
95
93
94
112
111
104
112
112
113
114
115
119
112
104
105
103
95
101
90
66
38
27
19
9
6
5
5
4
5
5
4
4
8
19
29
37
49
68
89
114
135
148
157
159
163
161
161
164
167
162
155
152
156
149
135
127
128
119
123
129
139
136
137
136
137
135
138
145
145
143
147
153
156
156
137
120
109
106
116
115
118
122
128
131
135
138
140
148
149
147
142
141
145
148
146
146
144
142
139
136
133
131
127
120
117
114
107
105
101
97
91
85
84
80
77
71
73
67
90
115
99
107
107
113
118
122
115
114
115
112
112
114
108
111
105
108
103
94
81
51
29
19
10
6
6
6
6
5
5
5
5
5
3
6
15
30
47
72
93
109
127
139
147
155
155
154
155
155
163
162
163
161
162
165
159
146
143
143
142
150
154
149
147
151
155
157
160
159
154
153
153
157
158
154
138
119
101
77
96
108
105
107
109
108
112
119
127
133
135
133
131
133
136
142
138
134
132
128
125
121
116
111
102
103
109
105
101
98
94
90
86
82
81
79
75
68
69
63
95
121
107
121
132
117
118
125
116
112
114
115
113
106
106
110
103
102
98
89
59
30
21
12
7
7
6
5
6
6
6
5
6
5
5
4
4
11
28
63
95
107
118
134
137
147
141
144
147
147
154
158
162
161
163
167
166
152
148
149
150
150
151
150
148
152
158
158
151
146
149
151
145
146
151
148
129
115
99
59
61
94
96
88
89
89
96
105
111
114
120
123
124
122
125
127
123
121
117
114
112
109
109
101
96
99
100
98
96
92
91
86
81
79
79
78
72
67
62
59
113
110
127
130
129
127
124
118
114
110
109
114
110
107
103
101
101
110
107
71
30
17
10
6
5
5
5
5
5
5
5
5
5
5
5
5
4
4
8
19
46
82
111
138
132
132
131
137
136
141
149
151
153
155
158
160
159
153
149
151
153
155
157
151
145
152
159
149
139
137
142
142
134
132
138
127
115
113
97
56
38
61
94
88
79
86
89
92
96
90
93
107
113
114
116
114
112
111
110
108
107
107
105
100
98
99
95
95
92
91
87
83
78
78
79
73
69
61
56
56
111
113
127
136
129
126
126
119
115
111
106
106
105
105
100
97
93
91
79
28
17
14
11
8
6
5
5
5
5
6
6
6
6
4
5
5
5
5
5
4
8
19
43
75
93
109
119
127
130
135
133
138
136
142
148
155
158
154
151
155
156
156
158
155
148
149
152
142
133
132
134
129
122
116
122
110
108
96
81
58
35
28
63
92
89
84
87
85
89
78
81
92
82
95
103
106
104
104
101
101
101
100
101
99
95
94
93
93
87
86
82
79
79
80
75
68
63
56
54
51
104
116
134
129
130
119
122
113
111
110
105
103
103
100
99
95
83
67
34
12
9
13
18
17
15
11
9
7
7
5
5
6
5
5
5
6
5
5
5
5
5
4
7
14
22
43
70
93
116
118
123
129
130
150
149
150
149
143
144
148
146
149
147
155
145
132
133
132
126
125
134
122
114
104
101
90
77
56
47
42
29
12
20
70
92
95
90
88
89
80
73
82
76
86
94
99
99
99
95
97
98
96
94
94
94
91
91
85
85
83
77
77
77
74
68
67
61
51
54
45
94
107
114
115
118
119
115
115
115
108
105
103
100
98
94
85
68
30
8
6
7
14
19
18
19
18
18
17
17
11
8
7
6
5
6
5
5
6
7
8
9
14
19
34
31
41
39
41
45
53
77
104
128
146
130
141
126
120
127
132
146
134
129
131
120
124
127
123
116
113
107
90
77
63
54
44
35
25
15
9
6
4
4
19
63
89
92
90
88
84
79
78
84
85
89
99
98
97
96
99
95
93
91
88
90
86
84
81
81
79
81
78
70
67
63
62
54
47
46
40
98
105
112
109
114
120
119
111
109
106
103
101
98
91
84
60
28
6
3
4
9
15
16
16
19
19
19
20
19
20
18
19
16
15
15
13
13
12
20
31
37
37
42
52
53
54
49
50
51
47
46
43
50
64
87
104
111
111
118
117
116
111
116
109
105
102
92
80
69
61
51
40
31
24
18
11
7
5
3
4
4
5
6
7
12
56
87
92
93
92
91
88
85
84
86
90
92
93
95
94
92
87
87
93
92
82
86
80
78
77
74
71
69
65
60
55
50
44
42
38
104
106
106
109
107
106
106
106
105
104
103
99
92
75
38
9
5
5
5
6
12
18
20
21
24
23
23
25
23
23
23
25
27
32
38
47
50
45
49
45
51
48
57
58
52
59
56
54
55
48
49
55
56
55
40
37
38
37
36
40
45
41
40
41
36
30
26
21
17
13
10
7
8
7
7
7
6
8
7
7
8
7
11
14
14
14
48
79
84
87
86
89
93
89
92
96
94
90
88
87
86
87
90
86
85
85
83
79
77
72
68
66
66
59
56
53
48
40
38
37
