P2
64 64
255
167
185
188
190
189
192
192
192
194
197
196
192
193
192
192
195
196
195
195
195
196
196
194
191
189
191
185
183
180
177
179
169
161
148
153
167
163
177
171
171
161
163
140
143
130
123
119
118
128
130
121
124
138
138
126
132
148
162
204
213
205
208
204
185
157
167
173
181
184
186
188
188
194
197
198
196
198
202
198
201
204
204
204
202
203
202
201
201
200
201
201
198
196
196
193
189
185
181
182
181
183
184
183
186
190
189
188
185
176
167
152
139
119
114
118
115
116
115
118
124
124
119
123
136
135
137
153
156
157
175
181
173
179
157
167
188
187
161
170
194
186
193
200
198
199
203
204
202
205
208
205
205
204
207
204
203
202
201
198
199
200
202
198
194
195
192
190
188
184
188
189
189
191
191
193
192
185
177
160
142
132
122
123
119
119
124
129
124
133
125
127
125
150
149
187
180
175
174
191
191
174
176
178
182
190
198
197
199
201
202
200
200
204
206
208
208
207
205
205
206
207
209
207
206
209
205
206
205
205
203
204
203
202
203
198
196
196
196
195
196
194
190
187
191
185
184
170
153
142
128
117
120
126
126
132
130
138
181
195
188
156
180
187
160
160
169
176
177
181
180
181
183
197
201
201
202
202
206
207
206
207
206
205
208
210
206
208
207
207
210
212
209
210
209
207
209
210
207
207
208
207
207
206
204
200
200
197
197
200
201
203
205
200
203
200
187
171
157
139
130
135
194
198
184
193
183
158
113
125
125
149
179
185
190
178
181
189
194
199
199
201
203
201
200
200
198
201
200
199
203
200
206
206
209
207
208
206
208
210
210
212
213
211
210
213
213
213
212
212
212
210
208
208
207
206
203
205
203
200
201
201
203
204
196
176
192
174
191
200
190
161
125
117
116
177
199
195
197
185
191
172
171
171
177
192
200
200
198
198
199
196
196
197
198
201
198
197
201
202
202
205
205
206
207
205
207
207
209
211
210
213
212
212
213
210
209
209
209
210
209
209
208
206
204
201
198
192
198
170
159
147
155
173
165
130
128
152
194
195
201
207
205
199
201
195
180
162
157
181
136
150
199
199
198
199
194
195
195
196
202
204
204
204
205
203
201
201
202
204
203
202
202
206
208
207
207
208
211
210
210
211
210
212
213
209
212
211
211
213
212
209
208
163
167
179
183
185
184
182
187
196
203
206
208
207
208
206
204
204
202
200
188
187
180
190
201
202
202
197
194
184
184
180
179
183
203
200
199
200
201
195
198
200
200
199
200
204
204
205
205
204
204
205
204
206
209
208
209
208
210
210
210
212
212
213
210
182
202
205
205
206
204
201
199
201
204
208
208
208
210
206
206
208
207
202
204
200
200
201
203
200
201
199
196
193
189
184
180
176
174
173
187
188
186
191
187
191
193
196
200
201
204
204
209
210
211
208
204
208
210
210
210
210
212
210
209
207
208
208
208
184
201
201
202
204
206
203
202
204
206
210
208
210
207
202
205
206
202
196
196
198
197
198
197
197
198
198
197
192
190
192
187
185
193
196
195
198
193
193
194
193
194
191
191
199
199
200
203
206
209
207
207
207
210
211
212
213
214
214
215
215
215
214
215
186
204
204
202
203
204
201
202
203
203
203
204
199
200
195
199
198
196
197
198
200
198
194
193
190
187
188
185
188
193
194
198
199
197
200
196
197
197
197
197
195
200
197
194
196
196
195
199
201
198
199
200
198
201
202
205
208
209
209
211
212
213
212
213
191
210
210
209
207
208
207
207
206
205
206
202
200
203
199
196
196
193
192
195
199
202
201
197
192
191
187
186
195
202
193
192
187
193
192
194
196
191
190
194
196
198
201
199
199
201
200
199
202
203
199
203
204
203
203
203
202
203
201
205
207
206
206
210
185
207
208
208
207
207
205
202
201
203
204
200
199
196
196
194
191
194
190
194
194
195
195
190
195
202
200
187
188
189
186
187
187
189
183
184
187
189
185
188
186
189
199
198
201
199
195
195
201
202
197
199
202
205
204
205
204
207
210
207
209
211
212
210
186
201
199
199
199
203
207
206
207
202
201
201
198
199
197
201
202
200
201
197
195
197
197
194
192
194
195
193
191
194
193
197
200
201
200
201
200
199
200
197
198
195
193
193
199
205
205
205
207
201
198
199
200
200
201
203
204
208
214
213
214
215
213
214
187
209
208
209
211
210
207
207
205
199
199
198
198
199
198
201
199
202
199
195
197
195
198
193
193
196
196
195
197
201
198
202
204
206
206
207
208
206
203
204
203
201
201
202
205
208
210
213
212
205
205
205
207
203
201
204
209
210
210
212
214
215
214
216
186
208
212
144
73
81
87
84
98
206
199
195
198
197
193
194
198
199
196
197
196
201
203
202
198
202
204
203
197
202
204
203
202
207
209
208
207
204
202
201
204
209
210
209
209
212
213
215
215
209
210
212
204
203
204
206
210
211
212
212
214
215
217
217
186
205
211
205
49
60
66
69
63
87
209
200
196
195
197
191
192
189
189
187
188
191
197
206
203
203
207
202
197
198
199
201
205
208
205
204
205
204
205
204
204
207
211
215
217
217
219
220
219
212
212
209
203
206
206
208
209
211
211
212
213
216
216
217
186
205
205
211
104
56
63
67
67
63
89
205
197
195
191
190
194
196
196
195
192
193
192
193
200
203
202
200
196
192
195
197
201
200
203
201
202
202
202
200
202
204
206
204
212
220
219
216
214
207
206
206
205
208
208
208
209
211
211
212
212
214
215
216
184
202
206
205
183
49
58
67
66
64
60
88
209
199
198
193
197
195
196
194
194
196
191
189
191
194
194
191
189
194
197
198
198
199
199
202
204
205
207
207
208
211
211
209
207
209
209
213
215
211
208
208
207
208
209
209
210
209
209
209
211
213
214
214
185
200
202
202
214
79
56
61
61
66
62
60
90
213
205
201
200
201
200
202
202
200
199
198
195
190
190
192
188
187
189
194
193
201
204
205
207
207
204
207
209
207
206
206
210
211
212
211
213
212
213
212
213
211
213
209
209
209
209
208
209
212
213
214
184
208
210
212
214
167
51
57
63
62
62
63
62
92
217
210
208
206
204
204
202
203
203
199
197
195
192
189
187
184
186
190
191
197
199
200
204
202
207
206
203
207
210
210
213
213
215
216
217
216
216
217
220
219
216
213
213
212
210
209
211
211
211
212
189
209
211
214
218
228
74
63
74
86
103
93
99
88
125
217
210
209
208
208
208
205
204
203
199
200
198
194
189
188
190
192
192
195
197
201
199
204
208
211
209
208
208
212
214
215
218
217
218
219
219
220
221
221
221
220
221
219
216
215
215
215
216
215
196
216
214
213
215
220
167
127
65
113
116
131
92
98
143
205
213
211
210
208
208
209
210
209
208
206
206
202
196
192
191
194
196
196
195
191
196
205
208
211
213
210
210
213
215
215
218
219
214
220
219
219
221
221
222
219
219
221
220
218
219
218
219
218
199
218
218
215
213
216
219
126
73
69
151
28
99
79
68
206
201
214
211
212
209
207
208
209
209
208
212
206
202
200
194
191
188
189
197
196
197
198
203
207
205
206
210
215
219
220
225
147
97
173
213
217
210
211
216
218
216
213
211
213
218
217
217
217
153
214
215
215
213
218
224
132
85
52
100
89
93
63
66
122
125
121
171
219
218
214
213
213
210
211
207
204
201
201
196
195
189
187
196
202
201
200
201
206
195
141
134
184
197
197
177
99
142
130
126
193
217
210
203
210
217
216
213
197
193
194
183
180
131
197
218
215
210
215
228
97
31
32
28
53
101
120
124
68
38
37
31
35
84
133
204
189
205
176
193
212
208
207
200
198
195
193
200
207
189
169
121
85
94
92
97
63
66
148
83
148
175
123
128
152
185
198
199
198
201
213
204
187
174
163
158
160
134
215
219
214
215
218
224
139
88
105
76
59
81
89
101
92
94
103
104
102
106
101
97
120
162
159
137
165
151
138
142
144
119
98
71
57
47
53
63
65
62
54
48
39
29
40
39
66
50
131
123
173
187
203
213
203
197
194
192
170
159
152
149
150
123
202
217
218
222
226
153
72
27
36
33
209
223
219
222
225
225
128
131
216
218
220
220
220
211
220
222
221
223
204
212
177
213
188
165
199
181
172
158
178
186
219
210
174
174
155
132
125
108
93
74
47
91
150
203
226
214
199
193
170
151
157
156
149
141
180
210
192
99
32
25
30
29
37
44
172
213
211
214
189
153
135
124
165
197
216
214
215
209
216
216
217
217
208
186
191
193
180
182
204
211
182
195
186
185
219
218
212
217
208
205
208
216
220
224
226
219
194
151
148
170
193
205
199
197
186
183
176
163
149
196
193
56
24
27
25
31
46
52
164
215
212
212
212
208
187
176
196
187
176
172
167
155
156
153
154
153
152
153
159
162
170
182
191
202
204
206
208
213
219
222
223
221
220
218
216
213
211
208
204
175
174
205
218
218
220
204
211
206
198
187
169
130
159
178
150
50
21
47
224
220
223
207
211
199
200
196
131
137
141
146
163
157
97
89
81
73
83
90
100
107
100
96
89
97
98
101
93
107
107
104
96
87
79
61
62
66
109
158
178
183
182
183
188
146
153
195
205
208
216
221
224
215
217
215
209
113
164
131
132
107
67
31
152
217
217
218
219
222
214
161
145
143
117
151
140
138
146
121
127
118
101
86
88
76
89
85
80
85
85
113
136
128
117
105
92
90
87
79
85
112
135
137
153
195
213
218
216
217
222
223
222
223
224
224
223
224
224
223
221
91
183
132
90
57
82
85
192
219
218
219
225
200
174
155
128
123
100
135
133
140
144
132
132
154
143
58
56
58
77
73
90
146
169
155
157
154
157
148
143
137
139
159
157
161
173
189
164
203
211
218
217
219
221
223
224
223
224
223
224
222
224
223
223
138
207
82
99
62
79
125
165
208
190
177
115
83
186
212
145
22
21
17
15
9
112
191
190
106
151
166
167
160
153
172
212
169
197
175
184
158
195
202
198
198
211
148
216
216
216
218
209
211
216
217
219
221
223
223
223
223
224
223
224
224
223
222
222
134
147
72
138
64
67
152
195
200
145
60
122
87
134
199
225
126
33
16
13
91
220
199
187
193
202
176
196
191
184
187
167
162
179
181
153
170
209
213
217
216
216
219
219
219
218
216
219
215
215
218
218
220
223
221
221
220
223
224
223
223
224
224
222
116
103
87
98
73
96
143
190
182
67
64
177
90
150
148
186
195
217
185
134
210
178
187
175
135
147
186
192
188
174
197
209
138
162
171
142
109
151
170
197
213
216
216
220
216
215
216
217
220
215
193
214
212
221
222
223
222
223
223
223
223
223
222
222
156
92
112
86
75
83
162
167
85
65
88
147
115
135
108
188
141
194
179
174
143
147
164
130
174
182
201
199
162
197
217
187
106
148
159
116
112
170
99
137
201
217
186
187
219
215
215
216
219
221
196
189
215
219
222
221
222
223
223
223
223
223
224
222
169
111
154
164
70
105
140
110
70
71
113
129
175
155
167
128
165
153
133
127
140
162
112
166
202
206
201
173
157
221
99
155
99
88
74
119
162
120
114
129
184
221
157
127
175
220
217
214
217
221
196
213
219
220
221
222
222
221
222
221
223
222
222
222
159
157
163
188
74
104
89
88
72
86
142
117
153
111
208
101
154
97
102
169
107
158
134
205
209
208
156
200
202
174
101
114
88
74
92
139
186
90
145
94
200
190
121
92
188
187
205
213
213
219
205
211
218
221
222
221
221
223
222
222
221
221
221
221
184
109
191
187
88
111
89
90
86
89
141
113
104
95
179
109
133
97
99
114
173
94
168
200
187
152
193
185
83
70
84
92
83
86
97
140
101
131
160
120
207
106
106
167
161
95
172
200
155
221
219
190
220
221
221
220
222
223
222
223
220
204
222
222
174
137
196
140
98
107
100
94
107
96
111
113
142
114
210
132
114
98
84
124
144
122
173
208
173
129
189
213
131
174
143
88
81
114
95
104
122
210
140
142
148
104
150
165
126
89
164
213
141
214
216
208
221
220
221
221
222
222
222
222
220
210
206
210
191
211
211
151
108
101
102
97
99
93
100
108
188
117
217
96
163
117
129
169
130
183
186
187
86
159
207
217
157
109
89
96
135
125
89
116
217
108
174
102
98
108
183
143
97
84
186
172
183
202
220
213
216
221
217
219
221
222
222
221
221
218
218
212
191
201
204
220
169
126
100
108
123
106
112
133
176
158
162
101
153
161
174
97
168
165
162
95
108
177
217
169
91
80
117
73
163
80
105
131
223
168
125
88
94
175
110
156
85
89
200
147
95
190
220
215
216
217
219
220
221
222
222
221
222
222
222
221
195
215
208
218
204
140
124
113
122
105
108
144
217
202
211
168
116
124
100
117
128
175
94
88
160
189
204
91
99
97
99
88
83
67
121
202
223
169
90
89
137
114
105
161
103
108
223
98
104
192
218
209
214
216
218
220
221
222
222
221
221
221
220
222
195
214
211
214
217
205
215
208
201
204
210
207
211
189
215
217
185
218
156
104
131
121
108
88
150
174
206
101
104
117
140
86
83
83
137
226
215
90
93
138
174
90
133
225
111
99
173
110
118
183
221
204
195
199
219
219
220
221
221
222
221
222
218
219
195
210
212
213
214
211
216
222
162
132
120
140
196
151
198
214
207
211
219
123
111
120
102
73
167
160
129
103
101
104
103
95
86
81
98
204
188
83
93
214
160
97
184
224
116
148
147
81
122
168
180
215
166
176
216
218
220
220
219
220
222
221
220
218
195
209
212
213
212
212
215
216
216
207
145
175
177
196
208
204
201
209
181
103
110
106
117
97
122
117
105
97
105
88
95
101
92
87
119
182
124
86
126
206
96
148
208
211
155
148
85
139
124
146
133
222
166
193
205
218
220
220
219
220
222
221
222
219
192
210
212
213
213
215
216
213
212
209
201
211
208
205
203
208
208
194
146
117
113
116
106
123
129
98
108
95
102
101
107
92
97
94
151
111
88
95
175
150
85
99
218
195
100
142
105
136
113
108
117
211
175
209
206
215
219
219
220
218
221
221
220
220
193
209
208
213
213
215
214
211
209
207
209
209
208
211
204
209
206
216
151
125
111
120
153
128
132
86
109
96
114
110
104
103
113
123
124
85
95
137
165
98
98
85
207
210
190
115
110
158
111
115
112
165
192
212
207
194
215
214
217
218
221
222
220
219
194
210
208
208
209
210
211
210
208
208
210
209
210
210
208
209
202
217
159
142
153
138
146
121
126
87
109
111
112
112
114
115
112
171
120
92
133
192
150
104
121
127
192
207
191
122
89
207
115
87
100
92
123
220
210
195
213
217
217
220
220
220
221
220
192
210
211
210
213
211
209
210
209
210
211
211
205
198
205
210
206
210
188
181
147
114
144
152
96
103
104
120
126
143
141
153
164
180
112
117
188
175
185
130
157
167
217
195
168
165
191
217
163
122
92
102
144
220
215
205
197
218
217
218
220
221
220
220
191
210
209
210
211
213
212
209
210
209
210
211
212
193
190
208
207
205
207
177
123
120
136
172
161
129
150
176
168
170
179
172
138
89
142
201
198
193
161
162
160
200
217
188
161
190
209
206
216
106
104
119
153
215
217
213
198
214
216
218
220
221
221
220
190
209
209
208
209
212
210
210
210
209
209
209
209
211
207
208
210
210
210
179
155
174
178
191
200
193
193
193
159
152
145
153
170
102
157
177
213
188
168
176
191
201
223
138
139
120
217
210
193
93
128
118
130
222
219
214
216
215
210
216
220
220
220
219
190
208
208
209
209
210
211
210
211
211
210
210
208
209
210
209
209
211
209
197
198
192
197
201
198
192
199
200
195
171
163
178
109
128
170
152
211
169
181
182
172
199
205
132
162
156
219
203
101
101
77
91
88
216
221
209
214
210
211
213
219
221
220
219
191
208
210
210
210
212
212
212
211
212
210
211
210
210
211
209
208
207
208
204
204
204
203
203
203
204
195
194
197
180
155
129
129
135
157
166
199
161
174
190
165
213
154
151
193
202
220
115
96
96
88
85
76
157
223
193
216
195
212
204
217
219
220
219
191
210
210
211
212
211
213
212
211
212
211
211
210
211
213
211
212
207
206
204
203
205
202
203
204
204
203
167
181
146
173
181
168
142
140
174
181
180
184
196
185
211
161
178
205
215
177
94
93
97
78
85
94
166
203
174
200
108
178
196
216
219
220
218
192
213
213
214
213
213
212
212
211
209
210
212
211
210
210
211
212
211
207
197
205
205
201
204
202
199
181
189
209
134
142
179
157
166
174
190
191
201
175
199
203
188
186
206
205
202
92
103
91
83
87
87
77
184
202
145
122
87
159
106
217
217
217
218
191
213
213
213
211
214
215
213
212
211
210
209
211
212
213
212
212
210
208
209
207
206
205
207
205
200
177
174
209
200
201
192
164
195
200
188
195
202
190
199
202
168
198
201
214
198
113
112
102
116
82
91
87
85
225
124
103
109
116
83
202
219
204
202
190
205
207
211
210
211
213
212
210
212
210
209
210
211
211
211
212
208
208
213
200
204
207
205
205
202
172
195
206
206
203
196
197
202
203
204
201
192
174
206
207
168
192
203
210
150
120
124
108
118
129
104
101
84
188
160
112
110
137
83
119
202
146
202
177
200
206
208
209
208
209
211
210
212
210
208
210
209
211
213
212
212
209
199
210
207
209
204
207
209
192
200
204
206
200
198
203
204
205
206
206
203
203
205
198
178
189
191
211
203
153
165
154
120
125
117
111
105
117
147
122
92
172
130
167
161
104
212
185
206
208
209
207
210
210
210
212
212
211
210
210
211
212
213
212
213
211
210
192
207
212
203
207
206
205
203
204
203
202
203
203
206
205
204
206
206
202
207
202
204
202
188
212
156
139
168
190
144
127
123
133
130
112
113
121
112
192
187
121
113
112
171
187
207
209
209
209
209
208
209
212
210
206
209
211
212
212
212
211
210
209
211
213
212
209
205
204
205
204
202
203
203
202
203
203
204
206
205
207
208
204
201
203
205
212
209
210
212
203
181
158
155
124
138
133
122
153
182
169
169
183
191
154
118
117
147
182
197
196
195
195
196
195
196
198
195
190
192
193
199
197
197
197
196
194
193
195
196
194
189
190
190
190
190
190
190
192
192
190
192
193
192
193
193
192
187
188
191
194
195
197
199
199
187
193
194
188
179
184
158
185
188
167
175
173
175
194
154
125
160
