P2
64 60
255
72
73
71
68
68
65
64
60
63
54
50
47
49
50
58
51
20
19
19
17
18
19
18
31
76
44
11
36
5
7
20
28
22
36
32
32
34
43
23
23
12
9
5
11
8
3
6
26
19
4
2
7
10
1
2
3
9
47
25
16
35
9
14
42
75
80
78
75
70
66
65
60
63
57
56
53
49
49
40
19
21
20
18
18
18
19
21
61
10
24
38
8
14
19
11
22
32
22
36
40
41
29
34
29
39
28
20
16
31
14
12
9
2
1
1
2
1
2
3
7
11
24
67
49
23
38
37
14
76
79
82
80
75
72
67
67
66
58
59
55
55
48
24
23
21
20
19
19
19
19
53
11
32
28
7
22
26
37
19
36
21
23
42
39
30
33
38
43
3
7
24
30
26
25
19
12
18
10
2
1
2
3
5
8
11
10
51
70
64
45
32
31
79
75
75
80
77
73
73
67
66
62
57
56
62
29
21
23
20
19
18
19
19
40
29
28
32
10
19
33
30
46
27
33
33
49
17
42
49
43
38
43
18
12
9
19
31
16
40
42
30
26
6
3
1
4
11
10
7
8
23
30
23
23
29
30
82
81
76
76
78
73
73
74
73
66
62
58
49
18
22
20
20
20
19
20
23
62
20
51
9
19
40
28
42
21
45
29
46
36
36
46
30
30
74
37
29
39
13
9
30
38
9
4
26
22
13
13
7
5
8
5
2
25
73
29
32
25
35
36
87
85
87
82
82
79
72
72
74
71
63
60
60
27
21
19
18
20
20
20
56
36
46
14
31
54
32
37
31
72
87
84
28
36
39
25
48
44
57
17
11
49
3
30
53
15
24
52
27
19
22
34
22
7
7
9
11
31
62
37
50
47
22
66
88
86
83
83
82
78
78
75
77
69
68
66
66
59
43
22
18
20
19
18
68
34
20
23
61
49
72
106
122
117
134
122
38
37
35
25
38
56
27
9
44
8
35
27
19
15
14
28
34
15
4
14
16
18
9
11
15
15
33
23
39
24
10
34
97
91
89
84
86
88
80
74
78
75
66
71
65
64
48
26
29
29
31
27
43
28
10
30
100
126
132
144
128
137
136
117
85
35
20
40
25
8
27
45
10
28
32
63
71
62
31
12
9
16
34
38
42
13
1
0
6
14
18
15
26
25
35
37
95
94
93
105
88
90
93
93
86
77
73
70
69
71
55
23
20
18
25
37
35
15
21
96
126
138
153
142
132
138
128
118
80
28
12
41
49
11
62
28
35
37
18
60
38
37
57
45
30
16
21
26
20
20
32
44
33
12
6
12
30
33
35
39
94
97
97
92
90
84
83
97
85
78
93
71
74
65
62
57
40
26
23
23
22
40
128
125
163
170
159
142
125
122
122
111
88
45
46
17
4
16
51
35
23
40
34
37
62
68
62
66
66
63
56
38
49
67
62
63
65
59
42
17
49
57
57
42
94
93
93
95
93
106
100
93
100
84
87
79
75
63
67
64
53
48
33
22
61
118
145
172
176
166
127
131
115
113
110
97
83
70
36
6
18
37
24
34
36
32
51
54
51
41
32
21
7
4
5
5
20
58
60
59
63
61
64
49
20
28
12
25
102
98
96
96
93
106
115
90
102
101
87
73
80
67
63
59
52
50
52
96
130
154
170
164
141
124
115
119
116
103
111
110
89
70
60
39
36
23
16
18
12
13
18
18
13
19
33
36
24
25
19
18
10
37
62
52
65
68
61
62
36
32
31
23
101
97
97
99
99
98
105
106
106
107
101
96
91
82
70
70
73
65
83
125
159
171
164
150
137
109
113
97
105
99
121
103
96
78
48
27
21
11
16
16
18
18
29
22
28
16
18
18
19
8
33
34
22
11
50
53
60
70
58
62
58
33
39
33
109
113
118
120
123
127
128
134
134
133
128
121
117
112
107
95
100
106
139
155
167
176
169
156
121
100
111
107
109
98
109
106
102
84
42
22
20
14
16
17
9
10
13
17
11
5
13
11
17
10
20
11
20
13
17
51
57
65
61
63
59
60
25
16
131
140
143
145
145
145
144
142
141
140
133
125
121
118
115
112
108
143
171
177
172
155
169
158
104
98
97
108
106
105
109
101
99
86
77
17
21
9
11
3
6
7
6
5
3
2
1
16
6
5
10
17
19
18
17
12
42
55
63
62
58
59
47
2
146
148
148
147
147
146
145
145
143
141
138
129
125
123
122
115
143
158
181
165
139
125
128
132
124
126
133
116
115
109
107
105
97
98
76
24
6
7
4
8
5
4
14
9
7
7
8
6
9
9
26
25
32
37
38
36
27
36
47
56
59
59
55
10
150
151
151
150
150
150
148
148
147
144
142
133
129
128
119
137
157
177
169
127
116
122
122
126
124
131
119
110
108
95
103
100
102
96
94
21
6
8
9
8
9
9
14
8
7
20
17
13
25
42
49
49
50
48
44
42
40
36
34
33
33
38
45
19
153
152
154
154
152
150
148
147
146
143
141
134
130
129
126
160
174
167
131
129
128
112
110
112
121
116
101
109
101
101
99
105
100
102
100
39
10
9
8
6
18
11
10
12
4
1
15
40
52
55
55
56
55
53
52
50
45
43
40
36
36
33
33
25
154
154
153
151
149
149
148
146
144
144
141
135
130
129
154
174
174
137
119
122
115
117
108
115
130
130
111
105
108
103
105
103
101
98
92
63
4
9
5
7
12
9
15
8
3
12
45
59
60
58
60
59
57
58
60
57
52
48
44
44
43
38
35
33
149
147
147
147
148
147
146
144
143
141
137
132
131
122
171
172
146
114
120
125
121
116
115
113
110
115
119
104
107
103
113
108
112
99
92
73
20
10
3
4
9
6
8
8
10
29
56
61
60
59
63
59
58
63
61
56
57
55
49
44
45
45
41
34
148
147
147
147
148
148
146
143
140
138
134
134
118
149
173
156
122
119
114
127
128
114
103
115
115
127
112
117
120
104
109
109
101
97
92
79
48
36
37
26
10
2
7
10
14
39
58
63
63
60
61
59
59
64
63
60
56
55
56
55
51
49
44
36
150
149
148
148
149
148
146
143
140
138
136
127
142
170
161
139
110
123
121
125
118
111
114
113
115
121
129
122
112
104
102
105
94
101
94
83
65
36
41
37
39
33
17
10
17
52
61
61
63
62
63
63
64
66
64
67
68
58
58
69
57
52
48
41
152
149
149
148
149
147
141
144
141
140
137
129
162
176
147
123
118
118
120
128
120
122
129
116
116
110
127
114
125
100
102
112
102
96
99
84
62
43
28
27
26
27
17
12
26
54
60
63
60
59
62
62
62
68
67
65
61
60
64
59
68
57
54
41
153
151
151
149
147
147
143
141
141
139
136
134
178
175
130
127
114
113
116
124
116
118
121
122
113
115
124
109
119
120
94
96
91
83
84
82
72
58
33
12
11
11
13
13
30
57
67
63
58
63
66
65
66
69
63
66
67
65
66
67
62
64
55
45
152
151
149
149
148
146
145
142
142
139
129
143
182
158
125
117
115
109
118
125
112
112
115
121
114
114
114
114
113
140
136
119
82
86
82
83
67
56
16
11
10
12
15
17
38
63
67
63
69
65
65
65
70
73
67
72
69
72
67
71
68
66
65
46
152
151
150
149
148
147
145
144
143
140
126
157
181
162
123
114
113
121
109
130
114
120
119
119
119
118
115
113
121
146
163
116
78
79
80
69
57
58
14
8
9
12
15
18
41
64
60
70
71
66
69
70
66
67
74
67
66
65
65
64
66
68
58
46
152
150
150
150
149
149
147
146
143
142
123
163
179
163
149
111
111
113
111
107
113
111
109
116
114
109
114
116
138
168
170
129
76
84
78
67
64
58
24
6
7
16
19
19
47
67
68
72
75
75
68
75
75
78
69
68
66
64
69
63
64
58
53
48
152
153
152
152
151
149
147
141
134
121
144
180
174
167
158
123
119
117
123
123
113
124
122
119
106
113
112
117
137
159
174
136
95
82
78
74
71
61
50
4
8
17
17
25
59
68
70
77
94
84
86
77
92
77
79
75
69
67
68
65
63
59
56
50
155
153
151
144
137
128
116
106
103
111
146
183
176
158
119
122
123
127
118
122
123
125
134
125
126
131
131
160
162
131
145
142
131
107
85
82
75
73
60
9
11
17
16
37
66
69
70
74
85
96
103
87
76
81
89
69
75
67
62
65
62
64
55
51
131
123
120
121
121
123
131
137
138
132
161
178
166
129
130
117
119
115
122
120
116
119
118
121
128
139
150
156
174
140
127
133
125
111
97
76
76
80
82
26
16
18
15
41
65
76
68
74
92
106
94
89
93
80
80
84
72
69
62
64
62
60
55
48
141
144
142
139
138
137
136
135
134
130
161
184
145
116
132
120
119
124
112
111
110
111
117
114
113
126
134
171
168
147
117
94
105
121
118
90
90
74
93
49
13
17
14
29
62
68
76
70
81
94
96
91
84
85
79
80
70
64
62
60
55
60
62
53
138
138
138
140
141
139
137
135
133
130
169
175
129
128
128
121
122
117
130
144
165
145
131
126
115
122
109
149
142
142
136
92
94
118
128
112
87
84
110
65
13
14
12
17
54
68
86
66
76
103
72
80
83
78
74
69
66
86
96
110
126
133
140
140
141
142
142
143
144
140
134
133
137
124
155
165
129
136
130
128
136
146
158
123
108
123
127
115
132
113
127
143
105
122
122
105
98
68
116
138
108
105
144
106
30
12
10
18
56
63
72
66
77
79
89
77
77
63
76
104
135
159
160
155
159
157
149
149
145
145
145
145
143
141
137
136
138
129
165
169
138
133
136
129
137
138
133
134
124
141
129
115
119
130
155
161
127
114
106
134
126
107
130
130
122
106
131
138
50
7
8
15
50
66
63
64
92
76
77
67
89
132
159
165
153
138
133
132
136
136
136
134
83
97
115
138
142
141
134
135
135
120
170
174
153
133
130
124
118
132
136
124
141
122
107
118
129
126
127
139
127
124
142
111
118
151
150
144
126
119
114
118
71
5
6
9
43
56
75
71
67
71
79
131
162
165
137
128
130
131
132
130
132
128
126
125
93
91
76
71
70
91
114
131
137
122
159
179
147
129
125
136
129
122
115
117
123
121
121
119
114
121
111
115
131
153
156
149
132
149
140
149
127
92
93
90
80
20
5
6
25
51
62
60
58
114
159
159
147
147
131
129
126
125
123
126
123
123
121
122
113
110
118
100
94
90
65
64
90
112
148
171
143
124
130
117
111
123
130
116
106
106
104
108
115
110
113
120
119
171
174
162
154
145
140
127
120
86
83
81
77
42
4
6
9
29
51
66
128
161
141
132
137
133
127
121
122
121
121
123
121
118
118
120
110
117
118
111
113
110
105
84
56
54
91
134
136
116
108
114
119
128
120
129
148
102
127
105
105
110
111
129
117
157
142
139
146
150
139
103
88
80
77
74
74
60
2
4
6
12
52
144
159
134
133
133
131
130
127
122
122
120
121
119
118
116
120
115
124
120
121
121
114
112
109
103
91
66
58
60
90
102
110
127
111
99
96
134
91
107
99
120
114
111
118
123
124
164
122
124
157
144
123
91
86
85
80
75
68
69
6
4
5
36
146
156
129
128
126
126
126
126
125
119
120
119
119
117
115
117
116
118
110
113
110
120
120
108
109
119
100
100
56
47
49
71
78
90
80
89
96
91
109
102
102
117
112
125
110
112
123
121
96
104
163
161
118
105
103
106
95
89
67
69
23
4
30
142
158
127
128
127
127
126
125
125
122
119
118
119
118
115
116
116
116
116
118
119
113
124
106
120
111
117
104
104
82
53
41
55
69
74
85
77
81
91
105
119
126
103
114
118
115
116
124
101
98
100
139
113
135
111
93
115
96
90
70
65
42
17
135
166
127
127
125
126
124
123
123
123
122
118
119
117
115
117
119
120
124
123
102
118
109
110
108
120
103
115
112
104
108
64
43
43
66
66
72
75
76
80
84
103
100
92
130
108
120
135
115
101
104
110
127
113
114
118
120
100
97
93
78
61
62
134
161
145
139
134
129
126
123
123
122
123
124
120
119
139
122
116
122
122
122
121
96
96
75
101
107
91
115
108
104
110
88
102
47
44
55
66
68
69
71
73
82
82
108
107
113
117
104
110
102
111
110
101
121
120
113
106
115
125
105
93
85
57
118
159
137
133
136
131
129
130
129
128
126
122
125
149
155
156
124
117
119
122
119
118
68
67
67
68
81
89
97
108
112
107
120
90
55
44
49
67
66
67
70
71
75
82
98
100
110
111
100
137
106
128
109
106
117
116
115
113
111
108
108
93
85
98
161
145
126
127
129
128
126
130
128
127
127
130
139
155
155
133
129
128
129
127
124
124
61
57
61
66
86
93
113
115
111
112
116
110
73
46
46
60
63
66
66
69
68
74
85
113
110
101
130
98
119
104
99
112
112
123
114
121
108
109
105
93
85
142
164
124
125
128
124
126
124
123
125
130
130
144
149
137
140
125
123
121
121
117
117
115
109
109
99
96
92
93
94
113
116
114
107
105
88
51
44
50
55
60
59
60
64
70
83
86
101
108
97
96
112
111
100
115
112
123
133
113
118
100
111
103
113
150
160
125
135
128
129
130
133
134
133
130
128
137
153
139
130
126
117
117
113
114
112
112
155
148
143
93
86
81
77
91
105
116
111
104
97
51
45
46
55
60
59
60
63
65
80
81
102
93
102
106
111
107
112
110
116
106
112
112
117
101
108
102
128
164
149
141
133
131
129
131
127
128
126
127
128
131
132
119
114
112
117
114
116
110
109
109
161
159
148
108
80
75
68
83
110
120
113
105
102
51
46
44
52
59
59
60
62
65
72
81
97
92
123
97
101
111
112
114
111
105
104
114
110
105
106
104
149
165
133
128
126
128
126
122
125
125
126
125
123
107
110
104
118
111
110
114
112
108
109
108
162
153
139
123
82
61
65
93
123
112
109
108
101
57
41
42
49
62
59
61
62
64
68
83
107
91
102
101
103
110
121
107
128
111
109
109
107
104
101
113
153
159
121
122
122
120
120
122
125
123
123
122
108
105
109
109
107
111
113
111
110
110
107
108
142
128
92
90
84
89
90
74
110
114
111
100
92
55
43
40
45
61
58
60
63
65
71
82
97
97
104
104
103
107
112
111
93
111
108
112
107
106
104
107
155
158
118
121
117
119
126
124
122
122
118
113
105
110
113
113
110
109
110
110
110
116
116
117
90
78
91
89
79
108
70
97
118
116
104
97
90
46
38
34
44
53
64
61
63
64
76
85
92
94
109
104
112
119
105
100
105
115
110
114
107
113
107
115
147
160
130
126
125
128
127
120
119
117
115
111
128
107
106
113
109
109
109
111
109
107
131
144
61
77
90
77
104
120
109
102
106
110
105
97
86
49
39
25
36
47
55
64
64
68
75
83
99
96
105
109
115
106
110
112
112
104
111
108
133
108
114
111
136
160
158
128
126
120
121
117
115
115
112
114
107
110
109
111
109
109
109
108
110
136
141
120
68
71
78
65
85
104
119
124
114
113
103
92
76
40
28
13
28
37
48
56
66
67
76
85
100
99
115
121
121
113
114
104
110
106
124
117
116
107
115
113
115
149
159
123
118
116
118
115
115
112
113
109
109
106
110
112
107
106
109
131
148
138
113
96
72
85
87
74
100
110
121
116
111
112
99
90
54
37
19
4
15
27
40
48
55
72
105
117
106
110
115
125
131
110
109
112
119
120
115
118
110
108
112
110
106
132
146
155
130
110
110
118
113
113
112
109
106
111
121
118
123
131
150
143
125
106
92
77
67
69
93
97
117
114
119
119
110
108
96
80
41
25
6
5
4
14
29
37
49
77
130
155
163
163
157
160
142
135
105
112
131
112
126
127
111
116
126
113
129
118
127
140
150
151
148
151
125
108
107
107
115
129
159
153
148
138
127
115
99
89
77
69
76
95
99
110
110
112
115
116
104
99
100
64
27
11
5
4
5
4
10
29
48
85
129
154
161
161
165
162
153
152
130
124
126
139
137
138
138
146
146
155
148
116
109
115
121
130
137
144
148
140
146
146
145
139
134
128
118
112
104
97
85
81
73
70
112
109
126
119
120
115
114
105
108
102
85
31
13
6
5
6
5
6
4
5
29
91
115
137
146
147
149
159
162
167
157
147
149
152
149
159
153
149
149
150
142
114
56
96
90
91
102
114
123
124
127
124
118
113
110
97
99
98
93
86
79
78
68
61
113
134
126
126
115
108
107
103
97
102
32
14
7
5
5
5
6
5
5
5
4
8
54
103
118
130
136
141
145
154
155
152
155
158
147
154
134
136
127
123
111
98
53
36
93
84
86
84
88
93
107
106
104
103
102
98
94
91
87
79
79
71
59
53
103
122
121
117
114
105
102
98
85
32
7
14
19
17
14
11
6
5
5
5
6
7
11
20
39
63
80
116
150
140
128
136
143
139
129
129
121
120
95
74
56
30
19
6
34
92
90
85
76
82
93
98
95
97
93
90
87
82
80
77
70
64
50
45
103
108
111
112
106
103
97
70
21
4
6
17
18
21
23
22
22
23
29
33
36
45
48
55
56
54
48
45
51
63
72
75
74
74
67
53
38
26
16
10
5
5
6
6
10
25
81
90
89
88
90
92
91
89
88
89
85
79
74
68
62
54
44
38
