P2
64 64
255
153
151
149
147
151
164
162
123
83
94
97
97
97
106
113
118
121
123
121
123
124
124
124
124
126
124
125
122
124
122
125
122
124
122
121
120
120
119
113
101
112
142
153
144
146
148
145
146
148
149
174
216
191
92
111
113
114
113
116
114
118
117
110
134
149
150
149
146
155
164
157
118
80
91
96
95
95
104
112
116
119
121
122
121
122
124
123
123
123
121
122
120
122
120
124
122
121
121
119
119
118
119
114
104
98
132
150
150
151
151
148
147
147
146
146
205
219
128
103
111
112
112
114
115
117
122
92
36
149
150
149
149
160
158
152
121
81
90
97
94
94
104
111
116
119
121
122
122
122
123
123
122
122
122
122
122
122
120
126
123
122
120
120
117
120
119
115
108
97
117
146
156
154
155
151
149
146
145
143
164
216
202
97
107
111
114
116
120
127
84
38
41
149
151
152
157
160
152
154
118
78
90
96
95
95
102
111
115
118
119
119
120
121
122
120
121
125
116
113
118
116
117
119
122
123
118
119
118
117
119
115
109
98
114
143
154
154
152
151
149
148
147
144
137
199
221
151
102
113
113
114
124
81
38
38
44
151
154
158
162
158
151
153
118
78
90
95
94
93
102
110
113
117
119
117
118
120
119
121
119
120
115
113
114
114
113
118
120
123
118
119
117
116
117
115
109
100
111
135
148
151
151
149
149
149
148
145
140
152
217
219
108
105
113
122
82
34
47
44
43
154
155
159
150
152
154
153
116
76
90
94
93
92
103
110
113
115
116
117
119
117
120
120
118
119
116
118
124
131
126
111
113
117
117
119
118
117
117
113
106
101
109
132
141
147
149
146
146
148
145
140
136
132
191
223
177
95
111
83
35
42
49
42
38
153
161
148
131
151
154
155
119
75
87
94
93
95
104
111
113
117
117
120
119
118
117
119
121
137
140
153
165
177
175
183
166
129
107
118
119
117
115
111
106
100
108
133
136
141
147
145
144
144
140
135
133
134
144
215
225
131
81
33
39
47
45
39
38
157
160
124
116
155
158
156
118
70
84
89
91
94
102
108
113
113
115
116
117
123
132
119
127
129
140
146
157
165
173
180
185
195
170
110
112
113
112
107
102
96
107
134
137
139
142
143
138
136
136
133
132
133
130
174
224
185
27
37
46
44
42
40
41
166
145
83
112
156
158
154
117
66
81
89
90
93
98
105
107
113
114
114
125
103
112
113
125
122
128
135
149
169
176
179
187
188
194
191
124
98
105
105
101
95
105
137
142
136
133
139
137
133
136
134
133
134
136
137
208
63
35
43
46
40
41
42
34
158
115
68
114
157
161
153
116
66
83
91
90
91
98
106
106
110
112
118
114
101
107
116
119
126
127
133
143
159
176
183
188
192
190
192
206
170
87
100
95
93
103
141
148
140
116
117
140
135
138
134
135
137
140
149
59
35
41
43
39
46
43
49
79
139
80
75
115
155
161
152
114
68
83
89
92
91
99
104
108
112
113
113
99
106
110
112
115
124
127
130
137
158
180
185
178
186
200
209
209
217
168
78
90
88
102
138
146
144
108
70
128
138
137
134
136
135
144
90
32
41
46
38
45
41
61
73
148
100
78
77
114
153
160
153
112
68
85
88
92
92
98
106
109
112
114
99
102
109
105
109
118
128
131
135
137
153
170
167
195
207
202
201
205
209
225
122
74
82
100
139
147
144
116
38
97
138
136
134
136
137
128
37
39
47
39
46
40
52
81
141
138
78
82
78
111
152
159
153
114
68
83
90
90
93
98
106
108
114
106
104
104
106
110
119
124
130
133
128
134
145
166
197
199
198
194
202
201
205
208
218
143
63
97
139
146
146
114
41
55
119
140
132
136
146
50
34
49
43
43
40
46
64
134
140
159
81
83
79
113
151
157
153
115
69
82
88
91
91
98
105
103
135
90
102
103
107
113
124
131
129
130
118
127
178
189
190
186
191
202
202
203
204
204
210
225
95
89
136
147
144
116
44
32
74
124
134
136
91
35
44
46
42
43
45
44
130
133
153
159
82
81
75
109
151
157
154
117
66
79
85
88
93
97
103
103
145
94
102
102
109
120
128
125
128
109
135
183
176
181
178
193
193
197
198
200
200
206
206
211
203
69
136
144
147
116
44
29
83
202
210
215
32
42
47
47
45
45
35
109
136
151
155
152
81
84
81
108
151
160
154
113
63
78
88
90
91
96
104
142
125
92
103
102
115
115
115
123
105
151
171
163
173
173
187
184
189
188
196
198
197
200
205
204
219
120
134
148
146
113
26
126
192
211
214
228
81
39
46
40
39
46
73
143
145
154
153
152
87
89
86
109
152
162
158
117
68
81
90
92
93
100
101
166
111
91
97
108
110
114
121
107
147
153
158
169
177
178
179
173
181
188
192
195
197
183
198
201
201
208
145
146
141
105
173
192
210
203
202
225
86
44
43
38
45
34
137
141
155
151
150
149
91
89
88
112
151
164
162
120
68
83
91
91
90
97
90
177
110
94
92
100
111
112
110
141
143
139
158
171
163
176
164
173
177
177
184
186
176
186
195
193
194
190
190
139
173
198
197
205
199
201
209
228
57
44
40
39
43
95
142
153
153
151
149
148
90
89
89
112
154
167
165
120
67
82
89
89
88
94
81
200
124
100
96
101
112
110
138
137
130
146
151
162
165
159
169
171
168
176
179
176
183
188
183
178
181
172
188
191
194
202
200
197
202
193
207
220
27
43
39
43
65
141
144
155
152
151
150
149
88
88
87
111
156
167
163
121
69
84
89
90
89
93
86
198
142
118
93
102
103
131
134
121
143
140
141
153
163
163
163
166
163
160
167
175
179
175
175
164
169
182
188
200
196
195
198
201
197
159
177
148
37
42
38
45
114
141
155
154
153
152
152
151
87
85
85
114
156
165
163
122
69
84
89
88
88
90
92
191
149
128
97
98
131
124
116
137
132
137
141
151
150
155
159
157
154
158
161
163
163
163
155
171
183
194
194
190
193
199
200
208
164
155
172
76
40
39
41
80
144
147
155
151
152
151
151
151
88
87
91
115
156
167
164
125
66
83
87
87
88
89
97
201
162
144
108
120
121
114
132
127
125
133
143
124
119
120
134
124
150
151
152
136
146
153
176
189
194
186
192
196
200
201
205
195
126
101
192
22
43
47
44
127
141
153
152
150
150
150
150
148
90
89
93
119
158
168
165
126
65
81
88
90
88
88
87
206
177
128
113
111
107
129
122
121
124
134
120
118
99
77
138
95
80
78
48
44
121
170
192
192
193
191
196
198
203
201
151
93
83
179
91
40
39
43
68
142
150
155
153
151
149
149
148
147
94
89
93
119
158
166
164
126
67
83
88
89
89
87
70
202
184
120
128
98
126
120
118
121
128
112
119
91
70
50
98
77
85
64
29
125
165
184
191
188
190
190
194
201
161
78
85
124
184
83
36
41
41
44
118
142
159
155
154
153
151
149
148
147
97
93
91
117
156
165
164
128
66
81
86
90
89
90
83
160
191
148
116
121
116
114
116
120
117
101
63
56
41
77
58
90
60
67
128
172
181
180
179
181
187
195
152
89
112
151
163
185
89
36
46
41
44
56
141
152
160
158
156
153
150
150
149
146
98
94
89
111
157
166
165
129
64
79
86
87
87
92
95
95
206
173
109
119
112
117
117
117
75
69
51
72
33
61
51
60
88
110
178
189
178
177
172
180
184
173
66
96
116
149
179
71
35
44
48
39
44
97
131
163
159
158
158
154
153
152
150
146
98
93
86
106
156
166
168
129
64
77
87
87
88
93
101
88
172
185
115
105
114
116
113
81
56
75
43
70
51
41
53
66
95
151
178
174
171
171
171
186
190
195
112
73
100
145
54
36
45
50
42
40
51
121
140
162
159
159
157
155
156
152
151
147
96
93
85
105
154
167
166
131
65
80
88
90
89
94
103
95
165
159
102
109
114
117
65
58
36
59
60
53
87
40
46
109
141
182
182
157
173
159
185
196
195
201
142
45
69
151
40
39
48
53
38
40
82
128
147
156
160
156
157
158
154
153
151
146
95
93
86
106
153
167
168
131
69
80
92
93
90
101
110
105
127
144
104
115
107
57
43
56
50
42
48
80
77
30
126
169
151
176
171
161
152
174
189
197
201
208
176
58
39
143
48
46
51
51
40
38
122
140
152
144
144
149
151
156
155
151
149
145
94
90
84
102
154
170
168
131
70
83
92
94
93
100
106
106
106
123
118
120
64
56
37
55
52
47
46
63
48
111
152
177
158
180
154
151
166
174
191
196
201
208
197
85
31
129
52
48
53
45
44
59
134
155
157
156
153
148
141
140
142
144
147
145
91
89
85
103
154
170
168
131
69
81
91
93
93
99
108
118
112
98
126
88
63
67
33
63
36
52
55
47
87
148
164
174
181
112
125
153
174
171
183
190
195
205
199
83
30
107
74
55
57
42
40
100
130
157
155
155
159
156
149
144
140
138
136
138
93
93
86
100
154
169
171
134
69
82
92
92
91
97
106
138
99
85
95
63
60
82
40
51
48
41
65
58
145
180
164
178
120
128
119
73
109
162
174
186
184
137
95
83
38
85
93
55
50
43
45
123
141
155
151
150
152
153
149
149
151
145
139
128
87
88
80
95
154
172
169
134
67
78
90
88
84
117
145
145
121
60
63
85
88
43
65
30
75
42
27
125
173
194
163
56
44
41
59
65
120
136
168
200
113
60
45
50
37
76
109
55
42
44
55
133
153
150
148
149
150
150
148
148
148
142
138
132
89
85
74
90
154
171
173
132
69
84
91
92
79
112
159
118
58
62
55
53
103
34
40
58
37
38
72
153
184
184
90
45
81
64
211
93
102
125
175
171
63
83
114
37
35
72
118
60
42
41
93
137
152
149
147
146
146
147
145
143
140
132
124
135
92
87
73
88
154
174
175
136
76
90
100
75
95
146
137
57
71
56
67
80
110
57
36
41
40
37
136
175
181
109
127
122
111
136
158
140
113
120
185
165
124
132
74
54
42
65
129
61
40
45
120
144
149
146
145
150
147
145
140
135
130
137
168
183
89
80
68
80
153
174
177
139
74
88
98
122
120
69
45
55
103
66
56
89
96
67
38
39
33
91
162
186
86
123
143
148
145
145
155
147
123
115
174
196
143
123
100
68
40
58
142
51
42
50
130
150
148
145
146
143
144
140
136
127
162
189
188
187
82
73
60
78
152
173
175
139
72
87
113
126
103
74
60
96
96
36
52
84
88
94
44
39
55
132
198
67
104
121
143
160
169
168
168
147
132
116
161
203
157
130
116
74
47
47
156
38
40
80
134
153
148
146
145
142
140
135
127
163
195
193
187
191
69
66
57
75
151
171
172
138
72
88
99
98
87
75
65
102
56
41
41
49
37
112
66
28
96
178
108
55
109
121
137
152
169
170
163
143
132
118
151
209
153
134
119
64
45
40
161
37
44
109
148
150
148
144
142
141
138
131
142
193
191
192
197
203
68
65
52
73
150
167
170
136
64
107
122
78
103
65
80
112
72
48
32
69
57
139
83
35
130
180
26
61
105
119
132
147
157
162
158
134
121
112
139
214
147
133
117
47
54
37
146
58
42
131
153
150
147
145
141
139
134
126
182
192
192
203
208
201
72
66
47
65
150
169
171
139
68
101
110
72
87
65
79
115
66
43
35
79
104
59
27
110
156
56
37
72
101
118
128
139
146
152
149
122
121
121
131
215
143
130
103
34
57
37
130
78
62
139
153
147
144
145
143
140
131
149
195
192
203
206
205
206
72
67
54
81
151
167
172
140
79
84
102
71
93
74
60
100
115
37
52
35
82
34
68
180
113
29
40
82
103
115
127
138
141
148
149
126
111
94
103
178
139
128
65
40
58
42
112
87
94
143
151
145
145
143
141
138
128
175
194
199
205
206
208
207
69
67
59
105
154
164
173
142
72
84
115
54
65
68
71
101
114
63
103
38
70
130
107
145
31
53
43
93
107
116
123
133
137
146
150
144
129
146
167
176
138
116
38
45
69
49
91
97
123
147
149
145
143
142
140
137
128
188
195
206
205
208
208
208
64
61
55
107
154
165
173
144
70
89
114
65
76
55
63
77
83
109
69
59
131
154
109
46
42
53
35
94
104
117
123
131
130
138
141
139
143
192
188
175
133
74
41
49
68
49
70
115
135
149
147
143
143
139
140
134
134
193
203
207
206
206
210
209
52
58
55
105
156
169
174
144
70
100
108
53
60
56
85
81
70
103
79
154
182
98
77
53
37
56
38
84
93
118
120
129
132
105
112
118
114
117
124
117
128
37
43
53
70
54
53
131
139
151
146
143
143
141
139
133
136
198
209
208
208
209
212
212
47
54
60
109
157
172
175
142
105
88
102
64
38
69
108
73
93
74
122
156
116
122
39
39
43
51
48
73
81
109
114
123
137
126
108
112
137
153
148
136
75
42
39
51
74
60
43
148
143
151
148
147
143
141
140
131
144
208
210
210
210
212
211
209
45
45
61
101
152
173
176
147
60
112
72
85
50
59
120
103
76
114
125
147
151
43
48
45
45
51
51
68
64
94
106
117
127
131
120
116
113
118
133
119
37
41
47
53
72
64
45
154
146
150
148
148
146
142
138
128
146
216
211
214
213
208
205
206
41
40
79
106
147
171
173
144
64
102
69
62
54
41
123
119
100
97
94
168
53
43
48
44
44
46
51
49
55
70
95
115
125
129
135
140
158
152
144
62
37
48
49
55
75
65
44
160
144
152
148
147
147
142
137
124
148
219
214
212
211
210
208
207
41
38
73
109
148
170
173
145
63
82
48
70
57
40
106
66
119
118
112
77
48
44
54
46
44
40
48
49
53
50
54
94
116
130
141
158
159
159
132
39
47
54
45
63
78
68
49
162
142
148
146
144
144
138
134
121
166
219
210
213
211
205
200
160
41
35
58
97
150
168
171
137
108
110
48
57
53
33
123
75
87
103
140
120
55
42
63
44
41
43
41
52
51
62
69
88
106
117
133
146
154
150
141
60
45
50
44
64
83
74
57
156
107
117
126
135
142
138
130
113
193
213
209
208
199
147
55
36
72
45
48
73
144
165
168
158
84
81
34
64
54
59
84
103
104
97
104
92
134
51
61
51
41
44
42
49
48
56
102
116
118
127
133
135
135
162
192
205
159
71
33
65
81
71
65
146
123
115
106
99
102
109
113
103
202
204
207
203
149
46
53
76
132
101
67
52
139
163
168
140
118
55
31
90
56
88
47
93
95
78
112
122
88
89
49
52
43
43
49
46
59
51
99
112
117
128
130
131
143
169
186
191
199
212
131
46
73
64
71
144
139
134
129
118
103
89
109
77
198
207
207
143
49
69
78
77
127
146
105
49
141
170
170
148
139
36
42
49
62
56
66
69
53
74
101
136
92
104
61
53
47
46
53
53
79
47
103
110
124
129
131
135
152
162
174
183
193
202
213
147
45
63
78
139
143
138
136
132
124
115
121
116
211
212
192
60
83
82
96
83
65
154
144
47
143
172
173
148
101
32
49
46
39
80
39
56
75
74
90
112
139
69
94
45
47
40
54
44
96
53
96
122
124
131
131
137
147
156
166
176
187
198
207
221
92
47
85
136
141
139
136
133
129
121
128
158
215
211
140
74
86
100
86
93
34
150
156
38
143
173
174
148
96
36
48
41
50
71
50
53
56
86
83
116
121
58
105
47
57
42
47
48
97
59
102
119
127
128
131
137
143
151
164
173
184
197
206
213
198
23
95
139
142
139
135
129
125
115
174
203
215
203
93
85
101
89
89
95
25
138
160
37
143
173
176
149
77
47
37
34
87
55
51
38
42
62
91
113
126
131
86
47
51
46
44
70
114
67
104
124
127
127
129
135
140
149
157
170
182
194
204
210
224
59
106
143
140
137
134
128
121
136
217
209
215
159
85
89
103
84
96
89
23
131
163
46
140
171
170
149
83
39
40
51
52
57
51
38
45
62
67
127
89
90
83
81
75
47
45
93
118
66
111
123
132
127
125
131
136
145
153
163
180
192
202
208
213
122
116
143
137
134
135
129
120
153
211
211
206
120
92
95
92
89
92
80
27
113
165
56
136
172
175
151
84
39
41
57
46
50
43
45
50
68
83
113
101
76
45
47
54
41
62
106
119
67
120
129
130
129
126
129
135
143
151
160
172
188
198
205
211
179
120
140
139
138
135
130
125
138
188
213
183
102
89
88
78
94
85
87
27
98
164
70
132
170
173
148
100
38
50
39
52
54
48
43
56
63
65
71
62
126
41
41
38
42
82
112
92
87
126
131
134
131
128
128
134
141
146
155
167
182
195
205
209
216
115
87
109
127
136
136
141
134
148
219
154
90
85
70
93
84
88
72
26
88
174
82
126
168
173
153
89
44
38
51
50
49
52
39
47
67
118
73
80
49
39
39
34
60
103
111
53
116
125
131
131
132
128
126
130
137
144
152
162
176
191
203
209
215
122
78
71
68
71
86
133
151
179
208
103
63
76
86
85
86
91
52
66
96
181
101
125
169
175
146
88
38
46
44
44
52
53
40
41
46
81
125
98
35
35
34
42
84
111
63
86
124
128
129
132
134
131
127
128
132
140
148
155
170
186
198
206
212
170
90
96
79
56
31
114
181
201
158
51
67
78
90
75
97
79
50
83
120
178
119
123
170
177
140
87
39
42
45
41
53
55
49
56
55
59
89
77
37
37
33
70
94
57
74
118
124
129
129
130
133
134
131
131
130
136
142
154
161
177
192
204
209
212
77
100
91
79
63
118
206
145
53
58
69
94
68
83
99
74
57
59
98
170
126
119
170
177
152
56
40
48
44
52
64
54
87
58
50
66
108
70
37
37
39
52
63
100
114
118
122
126
129
131
134
138
135
132
132
133
141
149
159
173
186
199
208
216
102
91
99
93
100
111
131
69
70
69
99
69
65
105
96
58
53
48
70
183
156
119
170
179
139
48
42
47
51
54
68
43
102
49
70
74
72
72
34
37
69
99
106
114
116
120
121
125
128
130
132
135
138
137
135
137
140
146
157
167
180
192
203
209
138
84
101
110
109
103
92
101
78
88
67
66
95
111
76
50
46
43
55
196
182
119
169
176
137
44
42
54
60
57
81
56
71
79
79
52
55
82
60
63
90
104
111
116
117
120
121
125
125
130
130
136
135
137
141
139
142
148
156
162
175
188
199
206
181
78
91
108
118
109
121
102
82
75
77
86
122
87
46
49
81
